<?xml version="1.0"?>
<svg xmlns="http://www.w3.org/2000/svg" viewBox="0 0 512 512" width="512" height="512"><g id="Face_Blowing_a_Kiss" data-name="Face Blowing a Kiss"><g id="Filled"><path d="M472,240c0,128.13-103.87,264-232,264S8,368.13,8,240,111.87,8,240,8,472,111.87,472,240Z" style="fill:#ffcc80"/><path d="M144,400a255.194,255.194,0,0,1-95.284-18.34C90.541,451.826,160.607,504,240,504c128.13,0,232-135.87,232-264A231.54,231.54,0,0,0,385.68,59.453,255.5,255.5,0,0,1,400,144C400,285.385,285.385,400,144,400Z" style="fill:#ffb74d"/><path d="M472.775,248.562a43.431,43.431,0,0,0-32.891,4.578,43.437,43.437,0,0,0-26.7-19.75c-22.784-5.8-45.733,7.091-51.259,28.8-13.9,54.581,51.909,93.256,51.909,93.256s76.288-2.495,90.186-57.077C509.549,276.66,495.559,254.363,472.775,248.562Z" style="fill:#ef5350"/><circle cx="184" cy="184" r="16" style="fill:#fff"/><path d="M485.988,254.328A112.011,112.011,0,0,1,384,320c-3.056,0-6.079-.138-9.073-.379,15.932,22.312,38.91,35.82,38.91,35.82s76.288-2.495,90.186-57.077C508.376,281.267,500.614,263.808,485.988,254.328Z" style="fill:#e53935"/><circle cx="396" cy="260" r="20" style="fill:#ff8f8f"/><circle cx="428" cy="292" r="12" style="fill:#ff8f8f"/><circle cx="112" cy="232" r="24" style="fill:#ffe4c0"/></g><g id="Outline"><path d="M148.2,34.87a8.064,8.064,0,0,0,3.17-.65l.03-.02A222.627,222.627,0,0,1,240,16h.03A223.281,223.281,0,0,1,462.78,216.55a7.975,7.975,0,0,0,7.949,7.17,7.847,7.847,0,0,0,.84-.04,8.026,8.026,0,0,0,7.131-8.79A239.795,239.795,0,0,0,240,0h-.02a239.289,239.289,0,0,0-94.95,19.52,8,8,0,0,0,3.17,15.35Z"/><path d="M119.82,49.52a8,8,0,1,0-6.85-3.85A7.963,7.963,0,0,0,119.82,49.52Z"/><path d="M432.79,379.35a8,8,0,0,0-10.98,2.53h-.01l-.03.05c-20.92,33.74-48.06,62.06-78.51,81.91C310.52,485.17,275.78,496,240,496h-.08c-57.84,0-113.9-28.8-157.84-81.1C40.66,365.65,15.96,300.27,16,240A223.322,223.322,0,0,1,98.74,66.14,8,8,0,0,0,88.65,53.73a240.755,240.755,0,0,0-64.61,81.45,238.807,238.807,0,0,0-17.8,50.2A241.456,241.456,0,0,0,0,240a263.04,263.04,0,0,0,4.86,49.65,292.284,292.284,0,0,0,13.89,48.51,308.238,308.238,0,0,0,21.97,45.73,302.585,302.585,0,0,0,29.11,41.3,275.984,275.984,0,0,0,35.35,35.22,243.067,243.067,0,0,0,40.77,27.43,211.1,211.1,0,0,0,45.26,17.81,192.766,192.766,0,0,0,48.8,6.35h.05a193.2,193.2,0,0,0,58.69-9.25A219.642,219.642,0,0,0,352,477.24c32.39-21.13,61.22-51.17,83.37-86.87a8.008,8.008,0,0,0-2.58-11.02Z"/><path d="M424,216a8,8,0,0,0,5.657-13.657c-25.341-25.341-66.963-19.81-89.393-14.31C348.836,176.455,369.3,168,392,168a8,8,0,0,0,0-16c-34.091,0-70.323,17.224-71.945,46.049a9,9,0,0,0,11.9,9.034c6.082-2.087,60.168-19.64,86.383,6.574A7.974,7.974,0,0,0,424,216Z"/><path d="M336,256a32.036,32.036,0,0,0-32-32H256a8,8,0,0,0,0,16h48a16,16,0,0,1,0,32H280a8,8,0,0,0,0,16h24a16,16,0,0,1,0,32H256a8,8,0,0,0,0,16h48a31.979,31.979,0,0,0,21.132-56A31.923,31.923,0,0,0,336,256Z"/><path d="M160,184a24,24,0,1,0,24-24A24.027,24.027,0,0,0,160,184Zm32,0a8,8,0,1,1-8-8A8.009,8.009,0,0,1,192,184Z"/><path d="M510.41,272.75a49.126,49.126,0,0,0-7.86-14.09A51.265,51.265,0,0,0,490.4,247.64a52.8,52.8,0,0,0-28.559-8.46h-.03a51.047,51.047,0,0,0-19.331,3.77,51.14,51.14,0,0,0-11.969-10.66,52.928,52.928,0,0,0-24.25-8.13c-.22-.02-.43-.03-.64-.03a8,8,0,0,0-6.07,13.2,7.94,7.94,0,0,0,5.41,2.78H405a36.935,36.935,0,0,1,6.21,1.03,35.288,35.288,0,0,1,21.8,16.1l4.09,6.84,6.86-4.06a34.984,34.984,0,0,1,17.83-4.84h.02a36.67,36.67,0,0,1,8.99,1.13c15.34,3.9,26.46,17.55,26.429,32.46a31.249,31.249,0,0,1-.959,7.62,53.729,53.729,0,0,1-17.451,27.88c-12.849,11.22-29.9,16.92-41.939,19.71a145.563,145.563,0,0,1-16.811,2.92c-1.439.16-2.84.3-4.159.4a143.118,143.118,0,0,1-24.471-20.31,97.721,97.721,0,0,1-16.389-22.4A59.212,59.212,0,0,1,368,277.37a52.071,52.071,0,0,1,.58-7.77,8,8,0,0,0-13.11-7.27,7.936,7.936,0,0,0-2.71,4.9,67.666,67.666,0,0,0-.76,10.14c0,11.92,3.14,23.88,9.35,35.54,6.77,12.7,16.96,24.87,30.28,36.18a147.6,147.6,0,0,0,18.13,13.24l2.02,1.18,2.32-.07a.5.5,0,0,1,.15-.01,155.9,155.9,0,0,0,42.16-8.53c13.02-4.67,24.09-10.91,32.9-18.55a72.706,72.706,0,0,0,13.57-15.53,68.882,68.882,0,0,0,8.89-20.48,46.8,46.8,0,0,0,1.459-11.57A47.433,47.433,0,0,0,510.41,272.75Z"/><path d="M375.67,233.09a8.024,8.024,0,0,0-7.941,7.08,8.012,8.012,0,0,0,12.92,7.2l.04-.04a8,8,0,0,0-5.019-14.24Z"/></g></g></svg>
