<svg height="512" viewBox="0 0 512 512" width="512" xmlns="http://www.w3.org/2000/svg"><g id="Dizzy_Face" data-name="Dizzy Face"><g id="Filled"><path d="m504 304c0 136.967-111.033 200-248 200s-248-63.033-248-200 111.033-296 248-296 248 159.033 248 296z" fill="#ffcc80"/><path d="m312 352c0 13.255-28.654-8-64-8s-64 21.255-64 8 28.654-56 64-56 64 42.745 64 56z" fill="#ef5350"/><path d="m144 424a303.071 303.071 0 0 1 -111.093-20.984c40.234 68.652 125.009 100.984 223.093 100.984 136.967 0 248-63.033 248-200 0-59.618-21.04-123.415-56.1-176.46-4 164.41-138.526 296.46-303.9 296.46z" fill="#ffb74d"/><path d="m248 296c-35.346 0-64 42.745-64 56 0 6.416 6.727 4.741 17.664 1.31a112.988 112.988 0 0 1 75.476-47.895c-8.74-5.646-18.64-9.415-29.14-9.415z" fill="#e53935"/><g fill="#ffe4c0"><circle cx="56" cy="312" r="24"/><circle cx="456" cy="312" r="24"/></g></g><g id="Outline" fill="#231f20"><path d="m506.82 250.47a336.689 336.689 0 0 0 -14.79-53.26 360.711 360.711 0 0 0 -23.4-50.95 352.365 352.365 0 0 0 -30.99-46.58 313.61 313.61 0 0 0 -37.67-40.12 262.879 262.879 0 0 0 -43.45-31.51 217.217 217.217 0 0 0 -48.34-20.64 189.717 189.717 0 0 0 -52.17-7.41h-.02a191.457 191.457 0 0 0 -62.07 10.52 228.744 228.744 0 0 0 -56.26 28.82 8 8 0 1 0 9.13 13.139c34.89-24.199 71.63-36.479 109.21-36.479 31.47 0 62.6 8.729 92.55 25.93 41.42 23.77 79.1 63.59 106.11 112.11 26.68 47.88 41.36 101.14 41.34 149.96-.01 31.89-6.28 60.649-18.65 85.46-17.34 34.75-46.29 61.7-86.05 80.109-37.37 17.29-84.13 26.431-135.24 26.431h-.19c-69.55 0-128.52-16.28-170.5-47.09-22.04-16.15-39.1-36.15-50.72-59.45-12.37-24.82-18.64-53.57-18.65-85.46-.07-72.19 32.26-152.79 84.38-210.351a8 8 0 0 0 -11.87-10.729 342.643 342.643 0 0 0 -36.7 48.98 360.059 360.059 0 0 0 -27.86 54.98 342.044 342.044 0 0 0 -17.72 58.28 293.818 293.818 0 0 0 -6.23 58.84c-.01 34.39 6.83 65.54 20.33 92.6a177.093 177.093 0 0 0 38.88 51.509 211.632 211.632 0 0 0 54.77 35.981 290.245 290.245 0 0 0 66.75 21.04 398.205 398.205 0 0 0 75.27 6.87c72.97-.021 135.25-17.38 180.09-50.19 24.12-17.65 42.82-39.59 55.58-65.21 13.5-27.05 20.33-58.21 20.33-92.6a290.691 290.691 0 0 0 -5.18-53.53z"/><path d="m117.13 73.729a7.979 7.979 0 0 0 5.32-2.019l.03-.04a8 8 0 0 0 .62-11.26 7.986 7.986 0 0 0 -11.21-.721v-.009l-.08.08a7.994 7.994 0 0 0 5.32 13.969z"/><path d="m158.247 195a8 8 0 0 0 -11.247-1.247l-35 28-35-28a8 8 0 0 0 -10 12.494l32.194 25.753-32.194 25.753a8 8 0 0 0 10 12.494l35-28 35 28a8 8 0 0 0 10-12.494l-32.194-25.753 32.194-25.753a8 8 0 0 0 1.247-11.247z"/><path d="m353.753 269a8 8 0 0 0 11.247 1.247l35-28 35 28a8 8 0 0 0 10-12.494l-32.194-25.753 32.194-25.753a8 8 0 0 0 -10-12.494l-35 28-35-28a8 8 0 1 0 -10 12.494l32.194 25.753-32.194 25.753a8 8 0 0 0 -1.247 11.247z"/><path d="m182.09 362.88a13.76 13.76 0 0 0 6.47 1.47c4.07-.05 7.63-1.08 11.75-2.26 1.88-.561 3.87-1.191 5.98-1.861 11.61-3.669 26.06-8.229 41.62-8.229h.14c12.84 0 24.88 3.12 33.94 5.84 2.56.769 4.99 1.53 7.34 2.28 2.24.71 4.35 1.37 6.36 1.97 4.13 1.18 7.7 2.21 11.75 2.26a15.155 15.155 0 0 0 4.15-.54 11.494 11.494 0 0 0 6.44-4.67 12.751 12.751 0 0 0 1.97-7.14 27.687 27.687 0 0 0 -1.75-8.851c-3.99-11.179-12.99-24.08-24.09-34.5a84.92 84.92 0 0 0 -20.66-14.46 58.054 58.054 0 0 0 -25.5-6.189c-9.6 0-19.28 2.649-28.77 7.88-14.39 7.95-24.67 19.54-30.76 27.86a87.417 87.417 0 0 0 -8.87 14.84c-2.11 4.73-3.53 8.819-3.6 13.42a13.847 13.847 0 0 0 .76 4.689 11.249 11.249 0 0 0 5.33 6.191zm30.66-42.53a69.7 69.7 0 0 1 16.74-11.77 42.306 42.306 0 0 1 18.51-4.58l.01-.05v.05c6.85 0 13.93 1.979 21.05 5.89 9.11 5 18.42 13.48 25.55 23.28a72.711 72.711 0 0 1 7.24 12.07c.35.73.67 1.489.95 2.239-.84-.219-1.7-.469-2.57-.729-1.9-.561-4.06-1.24-6.35-1.971-11.65-3.7-27.61-8.759-45.88-8.779-14.89.01-28.44 3.479-38.58 6.51-2.76.83-5.39 1.66-7.71 2.389-2.14.681-4.17 1.33-5.94 1.851-.87.27-1.73.51-2.58.729 2.59-6.769 9.79-18.109 19.56-27.129z"/></g></g></svg>