<svg height="512" viewBox="0 0 512 512" width="512" xmlns="http://www.w3.org/2000/svg"><g id="Zipper-Mouth_Face" data-name="Zipper-Mouth Face"><g id="Filled"><path d="m488 344c0 32 112 160-232 160-336 0-232-128-232-160 0-72-96-336 232-336 336 0 232 264 232 336z" fill="#ffcc80"/><path d="m488 344c0-35.22 24.878-116.381 10.975-190.111-40.303 140.384-169.634 243.111-322.975 243.111a334.484 334.484 0 0 1 -155.437-38.073c-14.951 45.435-61.01 145.073 235.437 145.073 344 0 232-128 232-160z" fill="#ffb74d"/><path d="m408 328h32v40h-32z" fill="#e5e5e5"/><path d="m424.485 448c-17.663 0-30.911-15.146-27.447-31.379l7.028-32.932c1.947-9.123 10.493-15.689 20.419-15.689 9.927 0 18.473 6.566 20.42 15.689l7.027 32.932c3.468 16.233-9.783 31.379-27.447 31.379z" fill="#616161"/><circle cx="336" cy="200" fill="#fff" r="16"/><circle cx="176" cy="200" fill="#fff" r="16"/><path d="m440 337.8a51.779 51.779 0 0 1 -32 14.338v15.862h32z" fill="#cfcfcf"/><path d="m396.576 423.852c1.106 13.23 12.914 24.148 27.909 24.148 17.664 0 30.911-15.146 27.447-31.379l-4.1-19.2a71.835 71.835 0 0 1 -51.256 26.431z" fill="#424242"/><g fill="#ffe4c0"><circle cx="64" cy="240" r="24"/><circle cx="448" cy="240" r="24"/></g></g><g id="Outline" fill="#231f20"><path d="m64 344a8 8 0 0 0 8 8h24v16a8 8 0 0 0 16 0v-16h16v16a8 8 0 0 0 16 0v-16h16v16a8 8 0 0 0 16 0v-16h16v16a8 8 0 0 0 16 0v-16h16v16a8 8 0 0 0 16 0v-16h16v16a8 8 0 0 0 16 0v-16h16v16a8 8 0 0 0 16 0v-16h16v16a8 8 0 0 0 16 0v-16h16v16a8 8 0 0 0 16 0v-16h32v16a7.953 7.953 0 0 0 .923 3.724 26.684 26.684 0 0 0 -4.682 10.3l-7.027 32.932a32.946 32.946 0 0 0 6.743 27.69 37.143 37.143 0 0 0 57.057 0 32.948 32.948 0 0 0 6.743-27.691l-7.028-32.931a26.752 26.752 0 0 0 -5.289-11.093 7.977 7.977 0 0 0 .56-2.931v-48h-48v16h-16v-16a8 8 0 0 0 -16 0v16h-16v-16a8 8 0 0 0 -16 0v16h-16v-16a8 8 0 0 0 -16 0v16h-16v-16a8 8 0 0 0 -16 0v16h-16v-16a8 8 0 0 0 -16 0v16h-16v-16a8 8 0 0 0 -16 0v16h-16v-16a8 8 0 0 0 -16 0v16h-16v-16a8 8 0 0 0 -16 0v16h-16v-16a8 8 0 0 0 -16 0v16h-16v-16a8 8 0 0 0 -16 0v16h-8a8 8 0 0 0 -8 8zm352-8h16v24.961a29.58 29.58 0 0 0 -16 .293zm-11.138 82.291 7.028-32.932c1.157-5.423 6.454-9.359 12.6-9.359s11.439 3.936 12.595 9.359l7.028 32.932a16.787 16.787 0 0 1 -3.533 14.287 21.151 21.151 0 0 1 -32.179 0 16.787 16.787 0 0 1 -3.539-14.287z"/><path d="m504.229 369.69c-.91-2.52-1.8-4.91-2.669-7.22-1.21-3.25-2.36-6.32-3.27-8.99-1.65-4.74-2.34-8.23-2.29-9.48-.04-10.34 2.58-26.82 5.609-45.9q.93-5.835 1.9-12.04c3.99-25.89 7.69-53.92 7.69-83.37 0-27.27-3.2-50.96-9.79-72.42-12.15-39.76-36.32-70.81-71.85-92.29a210.891 210.891 0 0 0 -32.531-15.92 278.888 278.888 0 0 0 -39.368-11.95 388.474 388.474 0 0 0 -46.81-7.5 547.906 547.906 0 0 0 -54.85-2.61c-34.57 0-65.99 2.95-93.391 8.76a288.008 288.008 0 0 0 -37.08 10.39 222.2 222.2 0 0 0 -31.289 13.9 8 8 0 1 0 7.65 14.05c37.87-20.63 89.7-31.1 154.07-31.1h.069c48.431 0 90.031 5.65 123.631 16.8 43.659 14.54 74.11 37.75 93.09 70.95 15.12 26.52 22.46 58.88 22.45 98.94.01 28.5-3.79 56.9-7.511 80.93q-1.125 7.335-2.229 14.19c-2.91 18.29-5.42 34.08-5.46 46.19.06 4.92 1.4 9.35 3.149 14.62 1.04 3.05 2.231 6.25 3.5 9.64 1.9 5.1 3.871 10.37 5.63 15.95 3.461 10.97 5.151 20.36 5.141 28.7-.03 10.91-2.68 19.94-8.32 28.4-10.7 16.03-32.5 28.75-64.79 37.8-39.91 11.21-96.47 16.89-168.13 16.89h-.79c-92.09 0-158.46-9.82-197.26-29.19-15.51-7.72-26.351-16.63-33.151-27.25-5.489-8.61-8.16-18.18-8.189-29.27-.011-12.94 3.84-26.29 7.21-36.48.74-2.26 1.49-4.47 2.22-6.6 1.1-3.25 2.139-6.31 3.05-9.24 1.47-4.86 2.68-9.27 2.73-13.97-.03-11.65-2.2-26.79-4.721-44.32q-.928-6.495-1.9-13.42c-3.2-22.97-6.47-50.16-6.47-77.59-.009-52.57 11.881-92.88 36.351-123.26a8 8 0 1 0 -12.47-10.03 162.542 162.542 0 0 0 -19.5 30.95 186.353 186.353 0 0 0 -12.23 33.32c-5.48 20.64-8.15 43.21-8.15 69.02 0 28.3 3.18 55.07 6.619 79.79q.841 5.97 1.651 11.59c2.6 18.19 4.849 33.9 4.82 43.95.04 1.3-.57 4.67-2.021 9.25-.79 2.57-1.79 5.49-2.839 8.59-1.65 4.87-3.531 10.38-5.23 16.29-3.48 12.21-5.11 22.43-5.12 32.16a68.748 68.748 0 0 0 10.71 37.88c6.14 9.62 15.04 18.23 26.47 25.59a162.257 162.257 0 0 0 32.67 15.65 301.36 301.36 0 0 0 45.75 12.05 572.365 572.365 0 0 0 61.04 7.76c23.53 1.82 49.969 2.76 78.57 2.78 25.58-.01 49.479-.73 71.05-2.12 20.72-1.35 39.9-3.36 57.03-5.99a381.365 381.365 0 0 0 44.55-9.37 215.816 215.816 0 0 0 33.64-12.29 120.77 120.77 0 0 0 24.19-14.88 78.114 78.114 0 0 0 15.93-17.13 65.367 65.367 0 0 0 11.03-37.31c-.03-15.59-4.43-29.99-9.191-43.22z"/><path d="m71.529 65.79a7.994 7.994 0 0 0 7.961-7.19 8 8 0 1 0 -7.961 7.19z"/><path d="m336 224a24 24 0 1 0 -24-24 24.027 24.027 0 0 0 24 24zm0-32a8 8 0 1 1 -8 8 8.009 8.009 0 0 1 8-8z"/><path d="m176 224a24 24 0 1 0 -24-24 24.027 24.027 0 0 0 24 24zm0-32a8 8 0 1 1 -8 8 8.009 8.009 0 0 1 8-8z"/><path d="m416 144a8 8 0 0 0 16 0 64.072 64.072 0 0 0 -64-64 8 8 0 0 0 0 16 48.054 48.054 0 0 1 48 48z"/><path d="m144 80a64.072 64.072 0 0 0 -64 64 8 8 0 0 0 16 0 48.054 48.054 0 0 1 48-48 8 8 0 0 0 0-16z"/></g></g></svg>