<svg height="512" viewBox="0 0 512 512" width="512" xmlns="http://www.w3.org/2000/svg"><g id="Expressionless_Face" data-name="Expressionless Face"><g id="Filled"><circle cx="256" cy="256" fill="#ffcc80" r="248"/><path d="m399.749 53.889a256 256 0 0 1 16.251 90.111 255.989 255.989 0 0 1 -256 256 254.542 254.542 0 0 1 -125.776-32.923 247.984 247.984 0 0 0 221.776 136.923c136.967 0 248-111.033 248-248a247.687 247.687 0 0 0 -104.251-202.111z" fill="#ffb74d"/><g fill="#ffe4c0"><circle cx="88" cy="232" r="24"/><circle cx="424" cy="232" r="24"/></g></g><g id="Outline" fill="#231f20"><path d="m91.34 78.54h.01a7.991 7.991 0 0 0 5.22-1.94l.08-.07a8 8 0 0 0 -10.61-11.98l-.01.019a7.991 7.991 0 0 0 5.31 13.971z"/><path d="m506.8 204.41a255.833 255.833 0 0 0 -69.78-129.431 256.46 256.46 0 0 0 -81.37-54.859 254.728 254.728 0 0 0 -48.06-14.92 257.9 257.9 0 0 0 -51.59-5.2h-.02a254.77 254.77 0 0 0 -143.94 44.28 8 8 0 1 0 9.01 13.22 240.014 240.014 0 0 1 304.66 368.2 240 240 0 0 1 -350.82-327.18 8 8 0 1 0 -12.07-10.5 255.9 255.9 0 1 0 443.98 116.39z"/><path d="m136 160h-64a8 8 0 0 0 0 16h64a8 8 0 0 0 0-16z"/><path d="m128 264a8 8 0 0 0 8 8h240a8 8 0 0 0 0-16h-240a8 8 0 0 0 -8 8z"/><path d="m440 176a8 8 0 0 0 0-16h-64a8 8 0 0 0 0 16z"/></g></g></svg>