<svg height="512" viewBox="0 0 512 512" width="512" xmlns="http://www.w3.org/2000/svg"><g id="Grinning_Face" data-name="Grinning Face"><g id="Filled"><circle cx="256" cy="256" fill="#ffcc80" r="248"/><path d="m392.592 48.994a258.753 258.753 0 0 1 7.408 61.627 255.126 255.126 0 0 1 -75.172 181.607 255.88 255.88 0 0 1 -303.709 43.565c33.221 97.82 125.83 168.207 234.881 168.207 136.967 0 248-111.033 248-248a247.76 247.76 0 0 0 -111.408-207.006z" fill="#ffb74d"/><path d="m72 200h368a16 16 0 0 1 16 16v72a120 120 0 0 1 -120 120h-160a120 120 0 0 1 -120-120v-72a16 16 0 0 1 16-16z" fill="#e27484"/><path d="m113.152 312h285.7a29 29 0 0 0 28.709-24.9l12.439-87.1h-368l12.443 87.1a29 29 0 0 0 28.709 24.9z" fill="#f5f5f5"/><path d="m402.38 331.78a23.992 23.992 0 0 0 -23.62-19.78h-245.52a23.992 23.992 0 0 0 -23.62 19.78l-8.88 49.68a119.486 119.486 0 0 0 75.26 26.54h160a119.486 119.486 0 0 0 75.26-26.54z" fill="#f5f5f5"/><circle cx="184" cy="152" fill="#fff" r="16"/><circle cx="328" cy="152" fill="#fff" r="16"/><path d="m403.148 336.079-.768-4.3a23.992 23.992 0 0 0 -23.62-19.779h-245.52a23.992 23.992 0 0 0 -23.62 19.78l-8.88 49.68a119.486 119.486 0 0 0 75.26 26.54h5.34a354.406 354.406 0 0 1 214.66-72q3.584 0 7.148.079z" fill="#e5e5e5"/><path d="m435.964 228.25 4.036-28.25h-368l12.443 87.1a29.071 29.071 0 0 0 .791 3.741 445.089 445.089 0 0 1 350.73-62.592z" fill="#e5e5e5"/><g fill="#ffe4c0"><circle cx="88" cy="152" r="24"/><circle cx="424" cy="152" r="24"/></g></g><g id="Outline" fill="#231f20"><path d="m104.42 67.7a7.927 7.927 0 0 0 4.89-1.67l.12-.09a8 8 0 0 0 -9.91-12.57 8 8 0 0 0 4.9 14.33z"/><path d="m506.8 204.41a254.636 254.636 0 0 0 -38.52-91.54 257.336 257.336 0 0 0 -69.15-69.15 255.893 255.893 0 0 0 -272.27-8.81 8 8 0 0 0 8.01 13.85v.01l.07-.05a240.315 240.315 0 1 1 -48.84 37.77 8 8 0 0 0 -11.33-11.3 256.227 256.227 0 0 0 -54.71 81.3 255.483 255.483 0 0 0 -20.06 99.51 257.9 257.9 0 0 0 5.2 51.59 254.636 254.636 0 0 0 38.52 91.54 256.741 256.741 0 0 0 112.63 92.75 254.8 254.8 0 0 0 48.06 14.92 258.516 258.516 0 0 0 103.18 0 254.636 254.636 0 0 0 91.54-38.52 256.741 256.741 0 0 0 92.75-112.63 257.393 257.393 0 0 0 14.92-151.24z"/><path d="m48 216v72a128.144 128.144 0 0 0 128 128h160a128.144 128.144 0 0 0 128-128v-72a24.027 24.027 0 0 0 -24-24h-368a24.027 24.027 0 0 0 -24 24zm288 184h-160a111.406 111.406 0 0 1 -66.523-21.954l8.019-44.863a15.972 15.972 0 0 1 15.744-13.183h42.76v32a8 8 0 0 0 16 0v-32h32v32a8 8 0 0 0 16 0v-32h32v32a8 8 0 0 0 16 0v-32h32v32a8 8 0 0 0 16 0v-32h42.76a15.974 15.974 0 0 1 15.745 13.188l8.018 44.858a111.406 111.406 0 0 1 -66.523 21.954zm110.466-188.692a7.95 7.95 0 0 1 1.534 4.692v72a111.61 111.61 0 0 1 -31.428 77.712l-6.316-35.336a31.972 31.972 0 0 0 -4.212-11.1 37.222 37.222 0 0 0 29.433-31.046zm-15.69-3.308-11.138 77.97a21.1 21.1 0 0 1 -20.789 18.03h-38.849v-56a8 8 0 0 0 -16 0v56h-32v-32a8 8 0 0 0 -16 0v32h-32v-56a8 8 0 0 0 -16 0v56h-32v-32a8 8 0 0 0 -16 0v32h-32v-56a8 8 0 0 0 -16 0v56h-38.849a21.1 21.1 0 0 1 -20.789-18.03l-11.138-77.97zm-324.82 111.278a31.95 31.95 0 0 0 -4.211 11.094l-6.317 35.34a111.615 111.615 0 0 1 -31.428-77.712v-72a7.95 7.95 0 0 1 1.534-4.692l10.989 76.924a37.221 37.221 0 0 0 29.433 31.046z"/><path d="m208 152a24 24 0 1 0 -24 24 24.027 24.027 0 0 0 24-24zm-32 0a8 8 0 1 1 8 8 8.009 8.009 0 0 1 -8-8z"/><path d="m352 152a24 24 0 1 0 -24 24 24.027 24.027 0 0 0 24-24zm-32 0a8 8 0 1 1 8 8 8.009 8.009 0 0 1 -8-8z"/></g></g></svg>