<svg height="512" viewBox="0 0 512 512" width="512" xmlns="http://www.w3.org/2000/svg"><g id="Face_With_Hand_Over_Mouth" data-name="Face With Hand Over Mouth"><g id="Filled"><path d="m504 216c0 128.13-127.033 288-264 288s-232-119.87-232-248 95.033-248 232-248 264 71 264 208z" fill="#ffcc80"/><path d="m463.983 98.649c0 .451.017.9.017 1.351 0 174.522-141.478 316-316 316a315.761 315.761 0 0 1 -96.165-14.911c40.673 60.882 107.065 102.911 188.165 102.911 136.967 0 264-159.87 264-288 0-46.93-14.911-86.111-40.017-117.351z" fill="#ffb74d"/><circle cx="80" cy="216" fill="#ffe4c0" r="24"/><circle cx="432" cy="216" fill="#ffe4c0" r="24"/><path d="m494.6 483.353a48 48 0 0 1 -67.394 9.879l-74.839-56.1 57.58-76.81 74.839 56.1a48 48 0 0 1 9.814 66.931z" fill="#2196f3"/><path d="m413.8 329.585a16 16 0 0 0 -22.4 3.206l-15.153-11.36a87.863 87.863 0 0 0 -35.218-70.384l-12.37-9.273c-10.766-8.07-26.441-6.059-34.306 4.858a24 24 0 0 0 5.083 33.225l-70.051-52.511c-6.894-5.168-16.8-4.317-22.283 2.326a16 16 0 0 0 2.727 23.007l-12.44-9.325c-6.894-5.168-16.8-4.317-22.283 2.326a16 16 0 0 0 2.727 23.007l25.6 19.194a16 16 0 0 0 -22.849 3.835c-4.837 7.129-2.877 16.873 4.017 22.041l12.441 9.326a16 16 0 0 0 -22.849 3.835c-4.837 7.129-2.877 16.873 4.017 22.04l57.249 42.915a87.772 87.772 0 0 0 69.38 16.008l19.378 14.526a16 16 0 0 0 3.206 22.4 16 16 0 0 0 22.4-3.2l67.178-89.617a16 16 0 0 0 -3.201-22.405z" fill="#fff"/><path d="m413.8 329.585a16 16 0 0 0 -22.4 3.206l-15.153-11.36a88.525 88.525 0 0 0 -5.139-29.616 164.1 164.1 0 0 1 -136.372 99.513l.728.545a87.772 87.772 0 0 0 69.38 16.008l19.378 14.526a16 16 0 0 0 3.206 22.4 16 16 0 0 0 22.4-3.2l67.178-89.617a16 16 0 0 0 -3.206-22.405z" fill="#e5e5e5"/><path d="m487.8 418.891a115.787 115.787 0 0 1 -91.8 45.109c-2.753 0-5.481-.107-8.185-.3l39.39 29.529a48 48 0 0 0 67.394-9.879 48 48 0 0 0 -6.799-64.459z" fill="#1e88e5"/></g><g id="Outline" fill="#231f20"><path d="m80.89 83.12a7.911 7.911 0 0 0 5.62-2.31v.01l.09-.09a8 8 0 1 0 -11.31.09 7.932 7.932 0 0 0 5.6 2.3z"/><path d="m104.81 61.91a7.941 7.941 0 0 0 4.88-1.67 211.761 211.761 0 0 1 130.31-44.24h.14c68.99 0 132.42 18.16 178.58 51.14 24.29 17.33 43.219 38.32 56.259 62.38 13.941 25.73 21.011 54.83 21.021 86.48.03 43.17-15.181 92.08-42.83 137.72a8 8 0 0 0 6.84 12.14 7.93 7.93 0 0 0 6.849-3.86 334.61 334.61 0 0 0 33.1-72.4c7.97-25.35 12.019-50.11 12.04-73.6.01-34.35-7.71-66.01-22.96-94.11a195.659 195.659 0 0 0 -42.88-53.38 245.426 245.426 0 0 0 -59.059-38.08c-42.85-19.9-93.71-30.42-147.1-30.43h-.08a226.943 226.943 0 0 0 -140 47.57 8 8 0 0 0 4.89 14.34z"/><path d="m346.53 464.76a7.938 7.938 0 0 0 -4.051 1.11c-33.969 19.99-68.439 30.13-102.459 30.13h-.02c-62.03-.03-119.35-26.05-161.38-73.27-39.81-44.75-62.63-105.52-62.62-166.73-.01-54.75 17.9-108.68 50.43-151.84a8 8 0 0 0 -6.39-12.82 7.91 7.91 0 0 0 -6.39 3.19c-34.59 45.93-53.64 103.27-53.65 161.47a270.542 270.542 0 0 0 4.48 48.89 273.631 273.631 0 0 0 13.02 46.74 269.254 269.254 0 0 0 20.93 43.26 258.393 258.393 0 0 0 28.23 38.47 241.917 241.917 0 0 0 34.89 32.32 231.313 231.313 0 0 0 40.98 24.81 227.137 227.137 0 0 0 97.38 21.51h.09a198.039 198.039 0 0 0 56.979-8.62 245.018 245.018 0 0 0 53.621-23.73 8 8 0 0 0 2.83-10.95 8.031 8.031 0 0 0 -6.9-3.94z"/><path d="m489.58 410.01-67.916-50.9 1.746-2.329a24 24 0 0 0 -4.81-33.59l-.04-.03a24.031 24.031 0 0 0 -14.31-4.77h-.07a23.938 23.938 0 0 0 -13.29 4.02l-6.73-5.05a96.29 96.29 0 0 0 -10.63-40.01 95.518 95.518 0 0 0 -27.7-32.7l-12.37-9.28a32.991 32.991 0 0 0 -19.65-6.52h-.04a32.665 32.665 0 0 0 -14.291 3.3 31.545 31.545 0 0 0 -11.62 9.81 31.923 31.923 0 0 0 -5.8 14.87l-47.88-35.89a24.9 24.9 0 0 0 -14.829-4.941h-.06a23.777 23.777 0 0 0 -23.05 17.66 24.506 24.506 0 0 0 -8.89-1.65h-.06a23.664 23.664 0 0 0 -18.35 8.58 23.99 23.99 0 0 0 4.1 34.5l7.49 5.62a23.945 23.945 0 0 0 -6.56 6.52 23.3 23.3 0 0 0 -4.05 13.23 24.707 24.707 0 0 0 5.06 14.91 23.745 23.745 0 0 0 -7.4 7.06 23.3 23.3 0 0 0 -4.05 13.23 24.674 24.674 0 0 0 9.89 19.7l57.25 42.91a95.462 95.462 0 0 0 57.49 19.19h.02a97.087 97.087 0 0 0 14.63-1.11l11.31 8.48a23.993 23.993 0 0 0 22.859 31.17h.071a24.107 24.107 0 0 0 17.3-7.391l68.06 51.021a55.682 55.682 0 0 0 33.529 11.2h.051a56 56 0 0 0 33.59-100.82zm-141.208 20.2a7.918 7.918 0 0 0 -3.786 5.052l-1.156 1.538a7.977 7.977 0 0 1 -6.42 3.2 7.855 7.855 0 0 1 -4.781-1.59 8 8 0 0 1 -3.209-6.42 7.918 7.918 0 0 1 1.6-4.78l4.779-6.37.031-.03-.011-.008 16.8-22.4a7.988 7.988 0 0 0 -1.611-11.2 7.987 7.987 0 0 0 -11.189 1.6l-16.8 22.409-15.809-11.851-3.47.66a80.507 80.507 0 0 1 -15.16 1.44 79.342 79.342 0 0 1 -47.92-15.99l-57.24-42.91a8.706 8.706 0 0 1 -3.49-6.9 7.471 7.471 0 0 1 1.29-4.25 7.986 7.986 0 0 1 11.378-1.963l38.462 28.823a8 8 0 0 0 11.2-1.6 7.989 7.989 0 0 0 -1.61-11.2l-38.363-28.757-12.48-9.35a8.735 8.735 0 0 1 -3.49-6.9 7.471 7.471 0 0 1 1.29-4.25 8.01 8.01 0 0 1 6.65-3.53 7.926 7.926 0 0 1 4.741 1.575l51.252 38.412a8 8 0 0 0 11.2-1.6 8.005 8.005 0 0 0 -1.6-11.2l-64.01-47.99c-.023-.018-.05-.029-.073-.046l-12.737-9.544a8 8 0 0 1 -3.2-6.42 7.92 7.92 0 0 1 1.85-5.1 7.773 7.773 0 0 1 6.07-2.76 8.814 8.814 0 0 1 5.24 1.74l6.027 4.519.013.011 5.717 4.285.473.355c.07.05.14.11.21.16l.04.03 63.97 47.95a8 8 0 1 0 9.6-12.8l-64.035-48a8 8 0 0 1 -3.175-6.4 7.919 7.919 0 0 1 1.84-5.09 7.8 7.8 0 0 1 6.08-2.77 8.779 8.779 0 0 1 5.24 1.75l70.05 52.51.04.03 19.16 14.36a8 8 0 1 0 9.6-12.8l-19.223-14.411a15.981 15.981 0 0 1 -3.366-22.129 15.764 15.764 0 0 1 12.96-6.46 16.549 16.549 0 0 1 10.049 3.33l12.37 9.27a79.436 79.436 0 0 1 32.021 63.99v3.97l11.956 8.972-2.407 3.208a7.986 7.986 0 0 0 1.61 11.2 7.988 7.988 0 0 0 11.19-1.6l2.4-3.2h.007l4.8-6.41a7.96 7.96 0 0 1 6.41-3.19 7.822 7.822 0 0 1 4.759 1.58l.021.01a7.979 7.979 0 0 1 3.2 6.42 7.846 7.846 0 0 1 -1.6 4.79l-4.653 6.207a8.044 8.044 0 0 0 -2.407 2.123 7.937 7.937 0 0 0 -1.367 2.912zm139.798 48.39a40 40 0 0 1 -56.17 8.23l-67.915-50.909 47.985-64.014 67.92 50.913a40 40 0 0 1 8.18 55.78z"/><path d="m128 184a8 8 0 0 0 16 0 24 24 0 0 1 48 0 8 8 0 0 0 16 0 40 40 0 0 0 -80 0z"/><path d="m320 184a8 8 0 0 0 16 0 24 24 0 0 1 48 0 8 8 0 0 0 16 0 40 40 0 0 0 -80 0z"/><path d="m369.81 361.6a8 8 0 1 0 -9.6 12.8 8 8 0 1 0 9.6-12.8z"/></g></g></svg>