<svg height="512" viewBox="0 0 512 512" width="512" xmlns="http://www.w3.org/2000/svg"><g id="Grinning_Squinting_Face" data-name="Grinning Squinting Face"><g id="Filled"><path d="m504 240c0 223.667-111.033 264-248 264s-248-56-248-264c0-128.13 111.033-232 248-232s248 103.87 248 232z" fill="#ffcc80"/><path d="m172 416a282.65 282.65 0 0 1 -140.716-37.281c39.541 95.747 125.287 125.281 224.716 125.281 136.967 0 248-40.333 248-264 0-52.316-18.517-100.583-49.745-139.391a285.443 285.443 0 0 1 1.745 31.391c0 156.849-127.151 284-284 284z" fill="#ffb74d"/><path d="m256 456c-168.64 0-248-101.482-248-226.667v-18.133s109.12-27.2 248-27.2c158.72 0 248 27.2 248 27.2v18.133c0 125.185-59.52 226.667-248 226.667z" fill="#e27484"/><path d="m359.99 431.16a56.012 56.012 0 0 0 -79.8-49.86 56.6 56.6 0 0 1 -48.38 0 56.005 56.005 0 0 0 -79.77 48.94v10.047c29.837 10.142 64.448 15.713 103.96 15.713 40.355 0 74.781-4.665 103.994-13.206 0-6.504-.001-11.327-.004-11.634z" fill="#ef5350"/><path d="m503.969 233.532c.015-1.4.031-2.8.031-4.2v-18.132s-89.28-27.2-248-27.2c-138.88 0-248 27.2-248 27.2v18.133c0 75.3 28.729 142.011 88.315 183.231 63.949-112.599 184.94-188.564 323.685-188.564a373.089 373.089 0 0 1 83.969 9.532z" fill="#d8667c"/><path d="m135.522 280h239.217a97.015 97.015 0 0 0 94.908-76.951c-39.623-8.013-112.541-19.049-213.647-19.049a1186.215 1186.215 0 0 0 -215.142 20.258 97.029 97.029 0 0 0 94.664 75.742z" fill="#f5f5f5"/><circle cx="56" cy="160" fill="#ffe4c0" r="24"/><circle cx="456" cy="160" fill="#ffe4c0" r="24"/><path d="m256 184a1186.215 1186.215 0 0 0 -215.142 20.258 97.029 97.029 0 0 0 94.664 75.742h33.405a299.95 299.95 0 0 1 151.761-94.44c-20.063-.981-41.634-1.56-64.688-1.56z" fill="#e5e5e5"/><circle cx="192" cy="408" fill="#ff8f8f" r="24"/><path d="m359.99 431.16a56.215 56.215 0 0 0 -54.33-55.14c-.115 0-.227 0-.342 0a160.593 160.593 0 0 1 -79.472 78.831q14.575 1.129 30.154 1.149c40.355 0 74.781-4.665 103.994-13.206 0-6.504-.001-11.327-.004-11.634z" fill="#e53935"/></g><g id="Outline" fill="#231f20"><path d="m463.12 419.93a8.013 8.013 0 0 0 -11.17 1.83c-20.11 27.96-47.19 47.37-82.77 59.33-29.92 10.03-66.89 14.91-113.02 14.91h-.23c-43.96 0-82.04-6.05-113.19-17.99-35.43-13.6-62.62-34.45-83.14-63.73l-.35-.5-.42-.44a8 8 0 0 0 -11.31-.27 8 8 0 0 0 -.91 10.55 186.238 186.238 0 0 0 40.53 42.04 203.886 203.886 0 0 0 49.88 27.29 276.816 276.816 0 0 0 56.96 14.67 413.573 413.573 0 0 0 62.02 4.38 505.064 505.064 0 0 0 61.56-3.38c21.04-2.59 39.59-6.63 56.71-12.36a193.662 193.662 0 0 0 49.94-24.78 170.515 170.515 0 0 0 40.74-40.38 8.021 8.021 0 0 0 -1.83-11.17z"/><path d="m182.84 26.26a7.945 7.945 0 0 0 2.22-.32 256.342 256.342 0 0 1 70.94-9.94h.03c106.47 0 201.32 66.62 230.65 162.01a7.972 7.972 0 0 0 7.65 5.64 8.277 8.277 0 0 0 2.36-.35 8.023 8.023 0 0 0 5.29-10l-.02-.04a232.759 232.759 0 0 0 -35.1-69.4 248.433 248.433 0 0 0 -55.81-54.86 261.1 261.1 0 0 0 -71.84-36.04 273.793 273.793 0 0 0 -158.58-2.39 8.013 8.013 0 0 0 -5.47 9.9 8.031 8.031 0 0 0 7.68 5.79z"/><path d="m152.74 37.01a8.007 8.007 0 1 0 -7.36-4.85 8 8 0 0 0 7.36 4.85z"/><path d="m15.15 183.92a7.745 7.745 0 0 0 2.33.35 7.956 7.956 0 0 0 7.65-5.67c16.18-53.11 52.8-98.66 103.11-128.25a8 8 0 0 0 -8.11-13.8 256.294 256.294 0 0 0 -37.03 26.46 248.333 248.333 0 0 0 -31.32 32.25 238.079 238.079 0 0 0 -24.72 37.25 229.707 229.707 0 0 0 -17.23 41.43 7.992 7.992 0 0 0 5.32 9.98z"/><path d="m506.332 203.547c-3.692-1.124-92.238-27.547-250.332-27.547-138.263 0-248.834 27.164-249.935 27.438l-6.065 1.512v24.383c0 67.174 21.818 124.551 63.1 165.928 21.857 21.909 48.855 38.877 80.245 50.434 32.989 12.146 70.893 18.305 112.655 18.305 90.2 0 157.661-23.187 200.518-68.918 36.815-39.282 55.482-95.052 55.482-165.749v-24.059zm-250.332-11.547c93.418 0 162.953 9.6 203.77 17.321a88.907 88.907 0 0 1 -67.77 60.985v-38.306a8 8 0 0 0 -16 0v39.972c-.421.006-.839.028-1.261.028h-22.739v-16a8 8 0 0 0 -16 0v16h-32v-40a8 8 0 0 0 -16 0v40h-24v-16a8 8 0 0 0 -16 0v16h-24v-40a8 8 0 0 0 -16 0v40h-32v-16a8 8 0 0 0 -16 0v16h-24v-40a8 8 0 0 0 -16 0v38.643a88.918 88.918 0 0 1 -69.12-60.064c43.909-7.916 119.034-18.579 205.12-18.579zm95.986 244.715q-41.947 11.261-95.986 11.285c-36.754 0-68.578-4.886-95.96-13.556v-4.076a48.006 48.006 0 0 1 68.363-41.83 64.594 64.594 0 0 0 55.194 0 47.6 47.6 0 0 1 21.829-4.521c25.31.739 46.2 21.94 46.565 47.223.009.625.003 3.28-.005 5.475zm144.014-207.382c0 105.828-42.968 173.6-128.008 202.53 0-.383 0-.678 0-.819a64.011 64.011 0 0 0 -91.206-56.982 48.649 48.649 0 0 1 -41.566 0 63.989 63.989 0 0 0 -91.11 54.738c-92.576-36.673-128.11-120.11-128.11-199.467v-11.779c4.273-.959 10.719-2.35 19.062-3.994a104.873 104.873 0 0 0 90.123 73.921 7.909 7.909 0 0 0 4.491.34c1.938.107 3.884.179 5.846.179h239.217c2.428 0 4.833-.108 7.225-.271a7.871 7.871 0 0 0 5.47-.512 104.87 104.87 0 0 0 88.082-74.73c9.243 1.976 16.114 3.668 20.484 4.81z"/><path d="m375.959 112a8 8 0 0 0 0-16c-34.091 0-70.323 17.224-71.945 46.049a9 9 0 0 0 11.906 9.034c6.08-2.083 60.166-19.641 86.38 6.574a8 8 0 0 0 11.313-11.314c-25.34-25.341-66.961-19.811-89.392-14.31 8.579-11.579 29.034-20.033 51.738-20.033z"/><path d="m128.041 104a8 8 0 0 0 8 8c22.7 0 43.164 8.455 51.736 20.033-22.427-5.5-64.052-11.032-89.393 14.31a8 8 0 1 0 11.316 11.314c26.217-26.216 80.3-8.661 86.38-6.575a9 9 0 0 0 11.909-9.035c-1.625-28.823-37.857-46.047-71.948-46.047a8 8 0 0 0 -8 8z"/></g></g></svg>