<svg height="512" viewBox="0 0 512 512" width="512" xmlns="http://www.w3.org/2000/svg"><g id="Hugging_Face" data-name="Hugging Face"><g id="Filled"><path d="m499.5 191.674c25.128 125.642-57.1 280.649-191.409 307.51s-269.835-84.595-294.963-210.236 63.378-249.271 197.685-276.132 263.555 53.216 288.687 178.858z" fill="#ffcc80"/><path d="m160 400a303.152 303.152 0 0 1 -107.942-19.756c55.26 82.193 155.975 138.951 256.029 118.94 134.306-26.861 216.537-181.868 191.413-307.51a218.393 218.393 0 0 0 -35.77-83.223c-6.538 162.118-140.008 291.549-303.73 291.549z" fill="#ffb74d"/><path d="m400.54 328c-13.455 0-24.791 11.011-24.536 24.464a24 24 0 0 0 23.996 23.536h-87.548c-8.615 0-16.029 6.621-16.434 15.227a16 16 0 0 0 15.982 16.773h-15.548c-8.615 0-16.029 6.621-16.434 15.227a16 16 0 0 0 15.982 16.773h32a16 16 0 0 0 -15.982 16.773c.405 8.606 7.819 15.227 16.434 15.227h15.548a16 16 0 0 0 -15.982 16.773c.405 8.606 7.819 15.227 16.434 15.227h71.548a88 88 0 0 0 88-88 88 88 0 0 0 -88-88z" fill="#f5f5f5"/><path d="m127.46 328c13.455 0 24.791 11.011 24.536 24.464a24 24 0 0 1 -23.996 23.536h87.548c8.615 0 16.029 6.621 16.434 15.227a16 16 0 0 1 -15.982 16.773h15.548c8.615 0 16.029 6.621 16.434 15.227a16 16 0 0 1 -15.982 16.773h-32a16 16 0 0 1 15.982 16.773c-.405 8.606-7.819 15.227-16.434 15.227h-15.548a16 16 0 0 1 15.982 16.773c-.405 8.606-7.819 15.227-16.434 15.227h-87.548a88 88 0 0 1 -88-88 88 88 0 0 1 88-88z" fill="#f5f5f5"/><path d="m480 372a147.982 147.982 0 0 1 -81.02 132h17.02a88 88 0 0 0 88-88 87.706 87.706 0 0 0 -25.035-61.468 149.013 149.013 0 0 1 1.035 17.468z" fill="#e5e5e5"/><path d="m96 504h17.02a148.029 148.029 0 0 1 -79.985-149.468 87.706 87.706 0 0 0 -25.035 61.468 88 88 0 0 0 88 88z" fill="#e5e5e5"/><g fill="#ffe4c0"><circle cx="64" cy="200" r="24"/><circle cx="416" cy="128" r="24"/></g></g><g id="Outline" fill="#231f20"><path d="m297.79 492.97a7.814 7.814 0 0 0 -1.18.09 202.241 202.241 0 0 1 -29.46 2.16 212 212 0 0 1 -35.35-3.02 8.778 8.778 0 0 0 -1.35-.11 8 8 0 0 0 -1.33 15.89 227.97 227.97 0 0 0 38.03 3.24 217.469 217.469 0 0 0 31.8-2.34 8 8 0 0 0 -1.16-15.91z"/><path d="m14.64 324.16a8 8 0 1 0 15.07-5.38 225.551 225.551 0 0 1 -8.74-31.4 211.719 211.719 0 0 1 -4.11-41.36c0-61.3 27.39-121.43 75.15-164.97a8 8 0 1 0 -10.76-11.84l-.02.01a255.854 255.854 0 0 0 -33.69 37.4 246.24 246.24 0 0 0 -25.28 42.81 235.757 235.757 0 0 0 -15.88 46.91 226.036 226.036 0 0 0 -1.09 94.18 240.929 240.929 0 0 0 9.35 33.64z"/><path d="m138.85 46.4a8.069 8.069 0 0 0 3.75-.93 255.47 255.47 0 0 1 69.78-24.81 258.341 258.341 0 0 1 50.54-5.03c53.97-.01 106.54 17.54 148.04 49.4 42.54 32.68 70.45 77.01 80.7 128.21a230.114 230.114 0 0 1 4.34 44.95 268.181 268.181 0 0 1 -13 81.48 7.99 7.99 0 0 0 5.19 10.05 7.76 7.76 0 0 0 2.43.38 7.968 7.968 0 0 0 7.62-5.57 296.328 296.328 0 0 0 10.25-42.89 275.535 275.535 0 0 0 3.51-43.45 245.947 245.947 0 0 0 -4.66-48.09 225.9 225.9 0 0 0 -31.23-77.58 235.5 235.5 0 0 0 -55.41-60.18 252.535 252.535 0 0 0 -73.17-38.9 264.046 264.046 0 0 0 -84.61-13.81 274.54 274.54 0 0 0 -127.83 31.71 8 8 0 0 0 3.76 15.06z"/><path d="m111.59 63.12a8 8 0 0 0 -.01-16 7.887 7.887 0 0 0 -4.51 1.4l-.08.05a8 8 0 0 0 4.6 14.55z"/><path d="m140.211 149.313a24 24 0 0 1 28.241 18.827 8 8 0 1 0 15.689-3.14 40 40 0 0 0 -78.441 15.691 8 8 0 0 0 15.689-3.137 24 24 0 0 1 18.827-28.241z"/><path d="m328.482 111.659a24 24 0 0 1 28.241 18.826 8 8 0 0 0 15.69-3.137 40 40 0 1 0 -78.447 15.689 8 8 0 1 0 15.69-3.138 24 24 0 0 1 18.826-28.24z"/><path d="m70.394 248.94a7.991 7.991 0 0 0 9.414 6.276 50.772 50.772 0 0 0 23.3-10.961c9.154 25.883 29.141 47.451 57.469 61.615 22.037 11.019 47.388 16.66 73.765 16.66a192.222 192.222 0 0 0 37.658-3.773c39.453-7.89 74.221-27.335 97.9-54.752 20.7-23.969 30.856-51.565 29.351-78.977a48.35 48.35 0 0 0 14.764 2.271 55.851 55.851 0 0 0 10.958-1.116 8 8 0 0 0 -3.138-15.69c-24.846 4.966-35.612-14.641-36.034-15.43a8 8 0 0 0 -14.223 7.327 45.5 45.5 0 0 0 10.4 12.845c10.594 55.972-39.936 113.2-113.113 127.833s-141.831-18.754-153.578-74.5a45.5 45.5 0 0 0 4.659-15.856 8 8 0 0 0 -15.946-1.343c-.089.945-2.486 23.188-27.331 28.157a8 8 0 0 0 -6.275 9.414z"/><path d="m483.88 348.12a95.732 95.732 0 0 0 -67.88-28.12h-15.51a32.544 32.544 0 0 0 -12.47 2.5 32.927 32.927 0 0 0 -10.32 6.81 31.985 31.985 0 0 0 -7.06 10.15 31.138 31.138 0 0 0 -2.64 12.56c0 .16 0 .38.01.65a32.035 32.035 0 0 0 4.27 15.33h-59.83a24.691 24.691 0 0 0 -16.7 6.49 23.8 23.8 0 0 0 -7.72 16.36c-.02.44-.03.81-.03 1.15a23.847 23.847 0 0 0 1.72 8.93 24.891 24.891 0 0 0 -9.97 5.56 23.783 23.783 0 0 0 -7.72 16.36c-.02.44-.03.8-.03 1.15a24 24 0 0 0 24 24h9.37a23.854 23.854 0 0 0 -1.37 8c0 .45.01.83.03 1.19a23.837 23.837 0 0 0 7.72 16.32 24.891 24.891 0 0 0 9.97 5.56 23.847 23.847 0 0 0 -1.72 8.93c0 .41.01.8.03 1.19a23.817 23.817 0 0 0 7.72 16.32 24.654 24.654 0 0 0 16.7 6.49h71.55a95.971 95.971 0 0 0 67.88-163.88zm-11.31 124.45a79.552 79.552 0 0 1 -56.57 23.43h-71.56a8.743 8.743 0 0 1 -5.88-2.29 7.651 7.651 0 0 1 -2.55-5.31v-.05c-.01-.09-.01-.21-.01-.35a8.036 8.036 0 0 1 8-8h48a8 8 0 0 0 0-16h-56c-.151 0-.3.014-.448.023l-7.112-.023a8.821 8.821 0 0 1 -5.88-2.28 7.693 7.693 0 0 1 -2.55-5.32v-.05c-.01-.09-.01-.21-.01-.35a8.036 8.036 0 0 1 8-8h64a8 8 0 0 0 0-16h-96a8.036 8.036 0 0 1 -8-8c0-.15 0-.27.01-.4a7.651 7.651 0 0 1 2.55-5.31 8.743 8.743 0 0 1 5.88-2.29h95.56a8 8 0 0 0 0-16h-80a8.036 8.036 0 0 1 -8-8c0-.09 0-.23.01-.4a7.693 7.693 0 0 1 2.55-5.32 8.782 8.782 0 0 1 5.88-2.28h111.56a8 8 0 0 0 0-16h-24.01a16.068 16.068 0 0 1 -15.99-15.69v-.29a15.67 15.67 0 0 1 4.86-11.24 16.671 16.671 0 0 1 11.66-4.78h15.48a80 80 0 0 1 56.57 136.57z"/><path d="m223.98 457.12c.01-.42.02-.78.02-1.12a23.811 23.811 0 0 0 -1.37-8h9.37a24 24 0 0 0 24-24c0-.37-.01-.75-.03-1.13a23.789 23.789 0 0 0 -7.72-16.38 24.958 24.958 0 0 0 -9.97-5.56 23.847 23.847 0 0 0 1.72-8.93q0-.585-.03-1.14a23.786 23.786 0 0 0 -7.72-16.37 24.691 24.691 0 0 0 -16.7-6.49h-59.83a32.034 32.034 0 0 0 4.27-15.38l.01-.05v-.55a31.138 31.138 0 0 0 -2.64-12.56 31.985 31.985 0 0 0 -7.06-10.15 32.927 32.927 0 0 0 -10.32-6.81 32.544 32.544 0 0 0 -12.47-2.5h-31.51a96 96 0 1 0 0 192h87.55a24.654 24.654 0 0 0 16.7-6.49 23.783 23.783 0 0 0 7.72-16.36v-.03c.02-.39.03-.75.03-1.12a23.847 23.847 0 0 0 -1.72-8.93 24.891 24.891 0 0 0 9.97-5.56 23.783 23.783 0 0 0 7.72-16.36zm-15.98-25.12h-80a8 8 0 0 0 0 16h72a8.036 8.036 0 0 1 8 8c0 .11 0 .23-.01.4a7.693 7.693 0 0 1 -2.55 5.32 8.821 8.821 0 0 1 -5.88 2.28h-71.56a8 8 0 0 0 0 16h56a8.036 8.036 0 0 1 8 8c0 .1 0 .25-.01.43a7.666 7.666 0 0 1 -2.55 5.28 8.737 8.737 0 0 1 -5.87 2.29h-87.57a80 80 0 1 1 0-160h31.48a16.671 16.671 0 0 1 11.66 4.78 15.653 15.653 0 0 1 4.86 11.24v.34a16.07 16.07 0 0 1 -15.98 15.64h-40.02a8 8 0 0 0 0 16h56a7.838 7.838 0 0 0 .8-.041l70.76.041a8.8 8.8 0 0 1 5.88 2.28 7.693 7.693 0 0 1 2.55 5.32c.01.14.01.28.01.4a8.036 8.036 0 0 1 -8 8h-88a8 8 0 0 0 0 16h88a8.08 8.08 0 0 0 .856-.047l14.7.047a8.762 8.762 0 0 1 5.88 2.29 7.651 7.651 0 0 1 2.55 5.31c.01.12.01.25.01.4a8.036 8.036 0 0 1 -8 8z"/></g></g></svg>