<svg height="512" viewBox="0 0 512 512" width="512" xmlns="http://www.w3.org/2000/svg"><g id="Face_With_Rolling_Eyes" data-name="Face With Rolling Eyes"><g id="Filled"><path d="m504 224c0 136.967-111.033 280-248 280s-248-143.033-248-280 111.033-216 248-216 248 79.033 248 216z" fill="#ffcc80"/><path d="m448 80c0 167.9-136.1 304-304 304a303.5 303.5 0 0 1 -96.151-15.554c44.208 77.523 120.914 135.554 208.151 135.554 136.967 0 248-143.033 248-280 0-59.562-21-108.161-56-144.077z" fill="#ffb74d"/><circle cx="144" cy="192" fill="#fff" r="72"/><circle cx="384" cy="192" fill="#fff" r="72"/><circle cx="384" cy="136" fill="#616161" r="16"/><circle cx="144" cy="136" fill="#616161" r="16"/><path d="m180.555 129.976a72 72 0 0 1 -105.11 84.048 72 72 0 1 0 105.11-84.048z" fill="#f5f5f5"/><path d="m420.555 129.976a72 72 0 0 1 -105.11 84.048 72 72 0 1 0 105.11-84.048z" fill="#f5f5f5"/><g fill="#ffe4c0"><circle cx="88" cy="312" r="24"/><circle cx="424" cy="312" r="24"/></g></g><g id="Outline" fill="#231f20"><path d="m81.59 71.859a7.993 7.993 0 1 0 -6.22-2.96 7.981 7.981 0 0 0 6.22 2.96z"/><path d="m491.74 129.069a201.977 201.977 0 0 0 -55.3-70.609c-23.08-18.95-50.479-33.62-81.449-43.59-30.651-9.86-63.962-14.87-98.991-14.87-57.03 0-109.681 13.39-152.28 38.72a8 8 0 0 0 8.18 13.759l.031-.019c40.089-23.86 89.899-36.46 144.048-36.46h.05c66.8 0 127.261 19.47 170.25 54.819 45.54 37.521 69.651 90.491 69.721 153.181.04 65.359-25.75 133.22-70.74 186.189-46.981 55.331-107.071 85.811-169.2 85.811h-.121c-62.129 0-122.219-30.48-169.2-85.811-44.999-52.96-70.779-120.83-70.739-186.189.04-52.32 16.31-96.99 48.38-132.79a8 8 0 1 0 -11.91-10.68 199.541 199.541 0 0 0 -38.611 63.7c-9.219 24.58-13.88 51.419-13.859 79.77a279.662 279.662 0 0 0 5.189 52.88 306.038 306.038 0 0 0 14.831 51.52 320.943 320.943 0 0 0 54.52 92.14 292.776 292.776 0 0 0 37.73 37.17 259.133 259.133 0 0 0 43.49 28.89 227 227 0 0 0 48.25 18.73 205.956 205.956 0 0 0 103.98 0 227.017 227.017 0 0 0 48.25-18.73 259.166 259.166 0 0 0 43.489-28.89 292.847 292.847 0 0 0 37.731-37.17 318.578 318.578 0 0 0 31.069-43.681 321.643 321.643 0 0 0 23.45-48.46 305.944 305.944 0 0 0 14.831-51.519 279.582 279.582 0 0 0 5.19-52.88c.04-34.351-6.78-66.29-20.26-94.931z"/><path d="m144 112a80 80 0 1 0 80 80 80.091 80.091 0 0 0 -80-80zm0 16a8 8 0 1 1 -8 8 8.009 8.009 0 0 1 8-8zm0 128a63.989 63.989 0 0 1 -23.753-123.411 24 24 0 1 0 47.506 0 63.989 63.989 0 0 1 -23.753 123.411z"/><path d="m464 192a80 80 0 1 0 -80 80 80.091 80.091 0 0 0 80-80zm-80-64a8 8 0 1 1 -8 8 8.009 8.009 0 0 1 8-8zm-64 64a64.089 64.089 0 0 1 40.247-59.411 24 24 0 1 0 47.506 0 63.993 63.993 0 1 1 -87.753 59.411z"/><path d="m232 320h48a8 8 0 0 0 0-16h-48a8 8 0 0 0 0 16z"/></g></g></svg>