<svg height="512" viewBox="0 0 512 512" width="512" xmlns="http://www.w3.org/2000/svg"><g id="Sleeping_Face" data-name="Sleeping Face"><g id="Filled"><ellipse cx="256" cy="272" fill="#ffcc80" rx="248" ry="232"/><path d="m417.422 95.881a226.651 226.651 0 0 1 14.578 80.119c0 64.208-26.7 124.543-75.172 169.891-48.328 45.209-112.548 70.109-180.828 70.109-51.216 0-100.135-14.026-141.787-40.11 40.741 75.964 124.748 128.11 221.787 128.11 136.967 0 248-103.87 248-232 0-70.457-33.581-133.57-86.578-176.119z" fill="#ffb74d"/><ellipse cx="256" cy="448" fill="#ef5350" rx="40" ry="24"/><path d="m240 464c0-13.255 17.909-24 40-24a63.857 63.857 0 0 1 14.574 1.651c-4.641-10.173-20.147-17.651-38.574-17.651-22.091 0-40 10.745-40 24 0 10.168 10.544 18.853 25.426 22.349a15.205 15.205 0 0 1 -1.426-6.349z" fill="#e53935"/><g fill="#ffe4c0"><circle cx="72" cy="360" r="24"/><circle cx="440" cy="360" r="24"/></g></g><g id="Outline" fill="#231f20"><path d="m56.97 133.34a8 8 0 0 0 11.28-.88c45.86-53.68 114.29-84.46 187.75-84.46a251.707 251.707 0 0 1 129.7 35.5 8.008 8.008 0 0 0 10.98-2.74 8.009 8.009 0 0 0 -2.741-10.98 267.744 267.744 0 0 0 -137.919-37.78h-.02a274.233 274.233 0 0 0 -58.71 6.34 266.194 266.194 0 0 0 -53.92 18.08 259.159 259.159 0 0 0 -47.59 28.38 250.591 250.591 0 0 0 -39.69 37.26 8.008 8.008 0 0 0 .88 11.28z"/><path d="m38.8 159.649a8 8 0 1 0 -2.42-11.049 7.952 7.952 0 0 0 2.42 11.049z"/><path d="m463.25 131.1a8 8 0 1 0 -12.641 9.8l.08.111c29.641 38.308 45.301 83.598 45.311 130.989-.01 59.71-24.9 115.9-70.1 158.21-45.36 42.42-105.69 65.79-169.9 65.79s-124.54-23.37-169.9-65.79c-45.2-42.31-70.09-98.5-70.1-158.21a209.9 209.9 0 0 1 19.09-87.7 8 8 0 1 0 -14.55-6.651 226.744 226.744 0 0 0 -.34 187.951 236.325 236.325 0 0 0 23.67 40.8 245.151 245.151 0 0 0 31.3 35.491 255.735 255.735 0 0 0 37.89 29.25 262.847 262.847 0 0 0 43.46 22.07 267.721 267.721 0 0 0 47.99 13.93 275.189 275.189 0 0 0 102.98 0 267.711 267.711 0 0 0 47.989-13.93 262.769 262.769 0 0 0 43.46-22.07 255.691 255.691 0 0 0 37.891-29.25 245.752 245.752 0 0 0 31.3-35.491 236.455 236.455 0 0 0 23.67-40.8 226.271 226.271 0 0 0 20.2-93.6 225.926 225.926 0 0 0 -12.891-75.38 233.614 233.614 0 0 0 -35.859-65.52z"/><path d="m72 304a8 8 0 0 0 0 16h64a8 8 0 0 0 0-16z"/><path d="m376 320h64a8 8 0 0 0 0-16h-64a8 8 0 0 0 0 16z"/><path d="m256 480c26.916 0 48-14.056 48-32s-21.084-32-48-32-48 14.056-48 32 21.084 32 48 32zm0-48c18.314 0 32 8.447 32 16s-13.686 16-32 16-32-8.447-32-16 13.685-16 32-16z"/><path d="m277.9 181.556a8.972 8.972 0 0 0 -8.314-5.556h-45.586a8 8 0 0 0 0 16h28.687l-32.637 32.636a9 9 0 0 0 6.364 15.364h45.586a8 8 0 0 0 0-16h-28.687l32.637-32.636a8.971 8.971 0 0 0 1.95-9.808z"/><path d="m376 176a8 8 0 0 0 0-16h-51.085l54.674-48.3.361-.339a9 9 0 0 0 -6.364-15.361h-69.586a8 8 0 0 0 0 16h51.085l-54.674 48.3-.361.339a9 9 0 0 0 6.364 15.361z"/><path d="m408 16h76.9l-80.263 79.765-.341.361a9.633 9.633 0 0 0 -1.563 10.333 9.342 9.342 0 0 0 8.486 5.541h92.781a8 8 0 0 0 0-16h-76.9l80.264-79.765.341-.361a9.633 9.633 0 0 0 1.563-10.333 9.342 9.342 0 0 0 -8.487-5.541h-92.781a8 8 0 0 0 0 16z"/></g></g></svg>