<svg height="512" viewBox="0 0 512 512" width="512" xmlns="http://www.w3.org/2000/svg"><g id="Smirking_Face" data-name="Smirking Face"><g id="Filled"><path d="m504 216c0 128.13-127.033 288-264 288s-232-119.87-232-248 95.033-248 232-248 264 71 264 208z" fill="#ffcc80"/><circle cx="208" cy="200" fill="#fff" r="16"/><circle cx="352" cy="200" fill="#fff" r="16"/><path d="m478.72 119.922c-14.113 157.016-146.031 280.078-306.72 280.078a306.612 306.612 0 0 1 -139.5-33.36c36.67 78.901 111.855 137.36 207.5 137.36 136.967 0 264-159.87 264-288 0-36.831-9.193-68.884-25.28-96.078z" fill="#ffb74d"/><g fill="#ffe4c0"><circle cx="120" cy="248" r="24"/><circle cx="424" cy="248" r="24"/></g></g><g id="Outline" fill="#231f20"><path d="m489.04 121.89a195.64 195.64 0 0 0 -42.88-53.38 244.871 244.871 0 0 0 -59.07-38.071c-42.84-19.909-93.7-30.429-147.09-30.439h-.04a231.5 231.5 0 0 0 -61.15 8.12 225.92 225.92 0 0 0 -54.11 22.76 7.992 7.992 0 0 0 -2.88 10.939 8 8 0 0 0 10.94 2.881c32.65-19.04 68.73-28.69 107.24-28.7h.12c69.01 0 132.44 18.16 178.6 51.14 24.29 17.33 43.22 38.32 56.26 62.38 13.94 25.73 21.01 54.83 21.02 86.48.09 59.64-30.06 131.21-78.66 186.79-24.46 28.01-52.86 51.25-82.14 67.2-31.66 17.26-63.68 26.01-95.18 26.01h-.02c-62.04-.03-119.35-26.05-161.38-73.271-39.81-44.75-62.63-105.519-62.62-166.729-.02-64.59 24.95-127.69 68.51-173.12a7.994 7.994 0 0 0 -5.78-13.53 7.908 7.908 0 0 0 -5.77 2.46 255.866 255.866 0 0 0 -30.84 39.339 268.156 268.156 0 0 0 -22.92 44.83 270.39 270.39 0 0 0 -1.7 195.651 268.5 268.5 0 0 0 20.94 43.26 257.622 257.622 0 0 0 28.22 38.469 243.076 243.076 0 0 0 34.89 32.321 231.372 231.372 0 0 0 40.98 24.81 227.125 227.125 0 0 0 97.37 21.51h.1a196.773 196.773 0 0 0 52.81-7.41 239.136 239.136 0 0 0 50.05-20.55 307.092 307.092 0 0 0 66.98-50.07 363.512 363.512 0 0 0 53.51-66.27 338.315 338.315 0 0 0 35.63-75.06c8.62-26.4 13-52.19 13.02-76.64.01-34.34-7.71-66.01-22.96-94.11z"/><path d="m102.36 63.819a7.94 7.94 0 0 0 4.95-1.719l.02-.01a8 8 0 0 0 -4.98-14.271 7.914 7.914 0 0 0 -4.88 1.671v-.011l-.08.071a8 8 0 0 0 4.97 14.269z"/><path d="m232 312a8 8 0 0 0 8 8h104a32.036 32.036 0 0 0 32-32 8 8 0 0 0 -16 0 16.019 16.019 0 0 1 -16 16h-104a8 8 0 0 0 -8 8z"/><path d="m208 176c-1.732 0-42.718.2-68.437 17.344a8 8 0 1 0 8.875 13.312c10.394-6.93 24.44-10.578 36.286-12.5a24 24 0 1 0 23.276-18.156zm0 32a8 8 0 0 1 0-16 8 8 0 0 1 0 16z"/><path d="m283.563 193.344a8 8 0 1 0 8.875 13.312c10.394-6.93 24.44-10.578 36.286-12.5a24 24 0 1 0 23.276-18.156c-1.732 0-42.718.2-68.437 17.344zm76.437 6.656a8 8 0 1 1 -8-8 8.009 8.009 0 0 1 8 8z"/><path d="m416 176a8 8 0 0 0 16 0 64.072 64.072 0 0 0 -64-64 8 8 0 0 0 0 16 48.054 48.054 0 0 1 48 48z"/><path d="m144 112a64.072 64.072 0 0 0 -64 64 8 8 0 0 0 16 0 48.054 48.054 0 0 1 48-48 8 8 0 0 0 0-16z"/></g></g></svg>