<svg height="512" viewBox="0 0 512 512" width="512" xmlns="http://www.w3.org/2000/svg"><g id="Squinting_Face_With_Tongue" data-name="Squinting Face With Tongue"><g id="Filled"><path d="m504 240c0 128.13-111.033 264-248 264s-248-135.87-248-264 111.033-232 248-232 248 103.87 248 232z" fill="#ffcc80"/><path d="m176 216h160a16 16 0 0 1 16 16v80a96 96 0 0 1 -96 96 96 96 0 0 1 -96-96v-80a16 16 0 0 1 16-16z" fill="#e27484"/><path d="m504 240c0-60.3-24.6-115.225-64.913-156.481q.9 12.126.913 24.481c0 183.359-148.641 332-332 332-2.568 0-5.126-.042-7.68-.1 42.563 38.9 96.713 64.1 155.68 64.1 136.967 0 248-135.87 248-264z" fill="#ffb74d"/><path d="m336 216h-160a16 16 0 0 0 -16 16v80a95.572 95.572 0 0 0 11.686 45.938 192.061 192.061 0 0 1 180.314-125.938 16 16 0 0 0 -16-16z" fill="#d86a6a"/><path d="m292 280c-28 0-36 16-36 16s-8-16-36-16a36 36 0 0 0 -36 36v84a72 72 0 0 0 72 72 72 72 0 0 0 72-72v-84a36 36 0 0 0 -36-36z" fill="#ef5350"/><path d="m328 343.886a124.1 124.1 0 0 1 -140.726 77.634 72.03 72.03 0 0 0 68.726 50.48 72 72 0 0 0 72-72z" fill="#e53935"/><circle cx="208" cy="344" fill="#ff8f8f" r="16"/><circle cx="220" cy="380" fill="#ff8f8f" r="12"/><g fill="#ffe4c0"><circle cx="64" cy="240" r="24"/><circle cx="448" cy="240" r="24"/></g></g><g id="Outline" fill="#231f20"><path d="m120.27 53.8a7.9 7.9 0 0 0 4.17-1.18 8 8 0 1 0 -4.17 1.18z"/><path d="m506.78 191.53a228.469 228.469 0 0 0 -14.98-45.13 236.371 236.371 0 0 0 -23.67-40.8 245.744 245.744 0 0 0 -31.3-35.49 255.168 255.168 0 0 0 -37.9-29.25 261.591 261.591 0 0 0 -43.45-22.07 267.96 267.96 0 0 0 -47.99-13.93 274.972 274.972 0 0 0 -109.16 1.26 265.377 265.377 0 0 0 -53.09 17.44 8.006 8.006 0 0 0 3.29 15.3 7.9 7.9 0 0 0 3.28-.71 251.9 251.9 0 0 1 104.19-22.15c64.2 0 124.54 23.36 169.9 65.79 45.2 42.31 70.09 98.5 70.1 158.21.04 60.17-26.35 125.48-70.59 174.7-47.08 52.43-107.23 81.3-169.36 81.3h-.11c-62.12 0-122.27-28.87-169.35-81.3-44.24-49.22-70.63-114.53-70.59-174.7.01-65.11 30.32-126.91 83.17-169.56a8 8 0 0 0 -10.04-12.46 248.293 248.293 0 0 0 -36.9 36.72 237.907 237.907 0 0 0 -28.09 43.43 226.89 226.89 0 0 0 -24.14 101.87 247.02 247.02 0 0 0 5.21 49.75 277.143 277.143 0 0 0 14.87 48.58 299.218 299.218 0 0 0 23.5 45.76 303.241 303.241 0 0 0 31.11 41.3 286.29 286.29 0 0 0 37.75 35.19 261.159 261.159 0 0 0 43.48 27.36 233.858 233.858 0 0 0 48.19 17.74 216.18 216.18 0 0 0 103.78 0 233.858 233.858 0 0 0 48.19-17.74 261.159 261.159 0 0 0 43.48-27.36 286.992 286.992 0 0 0 37.76-35.19 303.994 303.994 0 0 0 31.1-41.3 299.218 299.218 0 0 0 23.5-45.76 277.143 277.143 0 0 0 14.87-48.58 247.02 247.02 0 0 0 5.21-49.75 227.686 227.686 0 0 0 -5.22-48.47z"/><path d="m256 283.813c-6.388-5.582-17.632-11.813-36-11.813a44.049 44.049 0 0 0 -44 44v84a80 80 0 0 0 160 0v-84a44.049 44.049 0 0 0 -44-44c-18.368 0-29.612 6.231-36 11.813zm64 32.187v84a64 64 0 0 1 -128 0v-84a28.032 28.032 0 0 1 28-28c17.9 0 25.567 7.324 28 10.4v69.6a8 8 0 0 0 16 0v-69.638c2.341-2.969 9.983-10.362 28-10.362a28.032 28.032 0 0 1 28 28z"/><path d="m152 232v52.03a8 8 0 0 0 16 0v-52.03a8.009 8.009 0 0 1 8-8h160a8.009 8.009 0 0 1 8 8v52.03a8 8 0 0 0 16 0v-52.03a24.028 24.028 0 0 0 -24-24h-160a24.028 24.028 0 0 0 -24 24z"/><circle cx="256" cy="400" r="8"/><path d="m375.959 144a8 8 0 0 0 0-16c-34.091 0-70.323 17.224-71.945 46.049a9 9 0 0 0 11.906 9.034c6.08-2.083 60.166-19.641 86.38 6.574a8 8 0 0 0 11.313-11.314c-25.34-25.342-66.962-19.81-89.392-14.31 8.579-11.579 29.034-20.033 51.738-20.033z"/><path d="m136.041 144c22.7 0 43.164 8.455 51.736 20.033-22.427-5.5-64.052-11.032-89.393 14.31a8 8 0 1 0 11.316 11.314c26.216-26.216 80.3-8.661 86.38-6.575a9 9 0 0 0 11.909-9.035c-1.625-28.823-37.857-46.047-71.948-46.047a8 8 0 0 0 0 16z"/></g></g></svg>