<svg height="512" viewBox="0 0 512 512" width="512" xmlns="http://www.w3.org/2000/svg"><g id="Face_With_Steam_From_Nose" data-name="Face With Steam From Nose"><g id="Filled"><path d="m504 224c0 136.967-111.033 280-248 280s-248-143.033-248-280 111.033-216 248-216 248 79.033 248 216z" fill="#ffcc80"/><path d="m448 80c0 167.9-136.1 304-304 304a303.5 303.5 0 0 1 -96.151-15.554c44.208 77.523 120.914 135.554 208.151 135.554 136.967 0 248-143.033 248-280 0-59.562-21-108.161-56-144.077z" fill="#ffb74d"/><path d="m452.327 313.4a39.962 39.962 0 0 0 -60.435-5.676l-95.992-73.834a9.109 9.109 0 0 0 -12 .779 9.111 9.111 0 0 0 -.78 12l74.234 96.5a39.973 39.973 0 0 0 -.377 65.577 47.318 47.318 0 0 0 85.12 32.547 47.3 47.3 0 0 0 47.546-46.847c.162-.158.33-.306.491-.467a47.317 47.317 0 0 0 -37.807-80.579z" fill="#f5f5f5"/><path d="m59.673 313.4a39.962 39.962 0 0 1 60.435-5.676l95.992-73.834a9.109 9.109 0 0 1 12 .779 9.111 9.111 0 0 1 .78 12l-74.234 96.5a39.973 39.973 0 0 1 .377 65.577 47.318 47.318 0 0 1 -85.123 32.548 47.3 47.3 0 0 1 -47.546-46.847c-.162-.158-.33-.306-.491-.467a47.317 47.317 0 0 1 37.81-80.58z" fill="#f5f5f5"/><circle cx="56" cy="248" fill="#ffe4c0" r="24"/><circle cx="456" cy="248" fill="#ffe4c0" r="24"/><g fill="#e5e5e5"><path d="m490.14 327.059c-.877-.877-1.788-1.7-2.715-2.49a120.116 120.116 0 0 1 -142.015 71.489 39.936 39.936 0 0 0 11.573 12.69 47.318 47.318 0 0 0 85.12 32.546 47.3 47.3 0 0 0 47.546-46.847c.162-.158.33-.306.491-.467a47.32 47.32 0 0 0 0-66.921z"/><path d="m168.475 359.832a136.035 136.035 0 0 1 -151.355 28.624 47.7 47.7 0 0 0 4.74 5.524c.161.161.329.309.491.467a47.3 47.3 0 0 0 47.549 46.847 47.318 47.318 0 0 0 85.12-32.546 39.969 39.969 0 0 0 13.458-48.916z"/></g></g><g id="Outline" fill="#231f20"><path d="m357.109 469.04a7.931 7.931 0 0 0 -3.859 1c-31.17 17.22-63.891 25.96-97.25 25.96s-66.08-8.74-97.25-25.96a8 8 0 1 0 -7.74 14l.07.04a228.632 228.632 0 0 0 50.32 20.56 208.09 208.09 0 0 0 54.58 7.36h.041a208.079 208.079 0 0 0 54.58-7.36 228.178 228.178 0 0 0 50.39-20.6 8 8 0 0 0 -3.881-15z"/><path d="m16.58 299.26a8.112 8.112 0 0 0 1.97-.24 8.013 8.013 0 0 0 5.8-9.72 266.744 266.744 0 0 1 -8.35-65.3c.01-38 8.8-72.391 26.12-102.221 16.38-28.189 39.87-51.509 69.819-69.329a8 8 0 0 0 2.79-10.971 8.065 8.065 0 0 0 -6.889-3.91 7.965 7.965 0 0 0 -4.08 1.131 222.366 222.366 0 0 0 -42.7 32.82 201.02 201.02 0 0 0 -53.72 93.29 234.009 234.009 0 0 0 -7.34 59.19 282.781 282.781 0 0 0 8.83 69.22 7.989 7.989 0 0 0 7.75 6.04z"/><path d="m136.37 39.109a7.926 7.926 0 0 0 3.14-.639 8 8 0 0 0 -3.151-15.361 8 8 0 1 0 .011 16z"/><path d="m166.47 28.34a7.9 7.9 0 0 0 2.25-.33 310.363 310.363 0 0 1 87.28-12.01h.04c66.8 0 127.26 19.47 170.24 54.81 45.539 37.53 69.65 90.5 69.72 153.19a266.746 266.746 0 0 1 -8.351 65.3 8.015 8.015 0 0 0 5.8 9.72 8.091 8.091 0 0 0 1.96.24h.01a7.99 7.99 0 0 0 7.75-6.04 282.781 282.781 0 0 0 8.831-69.22c.03-34.351-6.78-66.29-20.26-94.94a202.05 202.05 0 0 0 -55.3-70.61c-23.07-18.95-50.48-33.61-81.45-43.58-30.65-9.86-63.96-14.87-98.99-14.87a326.4 326.4 0 0 0 -91.78 12.66 8.006 8.006 0 0 0 -5.43 9.93 8.049 8.049 0 0 0 7.68 5.75z"/><path d="m136 216c38.878 0 52.926-17.234 54.4-19.2l-12.8-9.6.089-.116c-.427.527-10.83 12.916-41.689 12.916s-41.262-12.389-41.689-12.916l.089.116-12.8 9.6c1.474 1.966 15.522 19.2 54.4 19.2z"/><path d="m376 216c38.878 0 52.926-17.234 54.4-19.2l-12.8-9.6.089-.116c-.427.527-10.83 12.916-41.689 12.916s-41.262-12.389-41.689-12.916l.089.116-12.8 9.6c1.474 1.966 15.522 19.2 54.4 19.2z"/><path d="m210.04 314.663a8 8 0 0 0 11.92 10.674c.155-.174 16.027-17.337 34.04-17.337 18.153 0 33.9 17.178 34.04 17.337a8 8 0 1 0 11.92-10.674c-.828-.925-20.585-22.663-45.96-22.663s-45.132 21.738-45.96 22.663z"/><path d="m439.81 126.265a8 8 0 0 0 -9.545-6.075l-119.611 26.581a23.97 23.97 0 0 1 -26.673-12.695l-4.826-9.653a8 8 0 1 0 -14.31 7.154l4.826 9.654a39.941 39.941 0 0 0 44.454 21.159l119.61-26.58a8 8 0 0 0 6.075-9.545z"/><path d="m206.6 163.351a39.944 39.944 0 0 0 35.732-22.121l4.826-9.653a8 8 0 0 0 -14.31-7.154l-4.826 9.652a23.975 23.975 0 0 1 -26.673 12.7l-119.614-26.585a8 8 0 0 0 -3.47 15.62l119.61 26.58a40.2 40.2 0 0 0 8.725.961z"/><path d="m456.712 305.2q-.321 0-.644 0-1.185-1.383-2.457-2.654a48.26 48.26 0 0 0 -61.9-5.059l-90.928-69.944a17.111 17.111 0 0 0 -24 24l69.544 90.407-.2.2a48 48 0 0 0 0 67.881q1.269 1.27 2.656 2.459a55.336 55.336 0 0 0 94.431 39.73q1.457-1.459 2.82-3.043a55.3 55.3 0 0 0 51.482-51.337 55.318 55.318 0 0 0 -40.804-92.64zm27.79 83.1-2.82 2.725-.034 3.339a39.3 39.3 0 0 1 -39.3 38.926h-.2l-4.045-.02-2.414 3.246a39.331 39.331 0 0 1 -59.389 4.384 39.237 39.237 0 0 1 -11.347-31.424l.422-4.594-3.765-2.666a32.313 32.313 0 0 1 -4.163-3.5 32 32 0 0 1 0-45.254 32.315 32.315 0 0 1 4.466-3.714l6.92-4.787-79.365-103.171a1.112 1.112 0 0 1 1.557-1.56l101.46 78.046 4.965-4.8a31.966 31.966 0 0 1 48.349 4.548l2.666 3.765 4.594-.422a39.318 39.318 0 0 1 31.441 66.938z"/><path d="m163.214 412.488q1.385-1.186 2.654-2.457a48 48 0 0 0 0-67.883l-.2-.2 69.545-90.408a17.112 17.112 0 0 0 -24-24l-90.928 69.944a48.266 48.266 0 0 0 -61.9 5.058q-1.271 1.269-2.457 2.655c-.214 0-.43 0-.644 0a55.32 55.32 0 0 0 -40.807 92.636 55.3 55.3 0 0 0 51.482 51.337q1.359 1.581 2.82 3.043a55.317 55.317 0 0 0 94.431-39.73zm-83.114 28.412a39.733 39.733 0 0 1 -3.783-4.383l-2.417-3.243-4.045.02h-.2a39.3 39.3 0 0 1 -39.3-38.926l-.034-3.339-2.4-2.325-.405-.383a39.317 39.317 0 0 1 31.425-66.951l4.594.422 2.666-3.765a31.962 31.962 0 0 1 48.349-4.548l4.965 4.8 101.46-78.046a1.111 1.111 0 0 1 1.558 1.559l-79.364 103.17 6.92 4.787a32.315 32.315 0 0 1 4.466 3.714 32 32 0 0 1 0 45.256 32.305 32.305 0 0 1 -4.161 3.5l-3.765 2.666.422 4.594a39.317 39.317 0 0 1 -66.951 31.421z"/></g></g></svg>