<svg height="512" viewBox="0 0 512 512" width="512" xmlns="http://www.w3.org/2000/svg"><g id="Grinning_Face_With_Sweat" data-name="Grinning Face With Sweat"><g id="Filled"><ellipse cx="256" cy="272" fill="#ffcc80" rx="248" ry="232"/><path d="m424.426 101.729a227.144 227.144 0 0 1 7.574 58.271c0 64.208-26.7 124.543-75.172 169.891-48.328 45.209-112.548 70.109-180.828 70.109-55.7 0-108.678-16.591-152.549-47.24 35.06 88.311 125.949 151.24 232.549 151.24 136.967 0 248-103.87 248-232 0-67.3-30.643-127.893-79.574-170.271z" fill="#ffb74d"/><path d="m504 120a64 64 0 0 1 -128 0c0-35.346 64-107 64-107s64 71.654 64 107z" fill="#2196f3"/><path d="m136 296h240a16 16 0 0 1 16 16v8a136 136 0 0 1 -136 136 136 136 0 0 1 -136-136v-8a16 16 0 0 1 16-16z" fill="#e27484"/><path d="m493.307 87.043a108.073 108.073 0 0 1 -92.882 83.234 63.981 63.981 0 0 0 103.575-50.277c0-9.17-4.313-20.785-10.693-32.957z" fill="#1e88e5"/><circle cx="424" cy="72" fill="#90caf9" r="16"/><circle cx="408" cy="120" fill="#90caf9" r="24"/><path d="m391.375 307.61a16 16 0 0 0 -15.375-11.61h-240a16 16 0 0 0 -16 16v8a135.6 135.6 0 0 0 41.62 97.911 216.113 216.113 0 0 1 229.755-110.3z" fill="#d8667c"/><g fill="#ffe4c0"><circle cx="80" cy="280" r="24"/><circle cx="432" cy="280" r="24"/></g></g><g id="Outline" fill="#231f20"><path d="m256 464c79.4 0 144-64.6 144-144v-8a24.028 24.028 0 0 0 -24-24h-240a24.028 24.028 0 0 0 -24 24v8c0 79.4 64.6 144 144 144zm-128-152a8.009 8.009 0 0 1 8-8h240a8.009 8.009 0 0 1 8 8v8a128 128 0 0 1 -256 0z"/><path d="m128 264a8 8 0 0 0 16 0 24 24 0 0 1 48 0 8 8 0 0 0 16 0 40 40 0 0 0 -80 0z"/><path d="m360 224a40.045 40.045 0 0 0 -40 40 8 8 0 0 0 16 0 24 24 0 0 1 48 0 8 8 0 0 0 16 0 40.045 40.045 0 0 0 -40-40z"/><path d="m95.9 102.82a8 8 0 1 0 -4.96-14.28l-.01.01a8 8 0 0 0 -1.31 11.23 7.976 7.976 0 0 0 6.28 3.04z"/><path d="m122.18 84.65a8 8 0 0 0 4.11-1.15 255.306 255.306 0 0 1 233.91-13.34 8 8 0 0 0 6.58-14.59 266.367 266.367 0 0 0 -53.1-17.45 273.835 273.835 0 0 0 -57.68-6.12 267.727 267.727 0 0 0 -137.95 37.79 8 8 0 0 0 4.13 14.86z"/><path d="m492.03 192.64a8.007 8.007 0 0 0 -7.62 10.44h-.01l.061.17a210.041 210.041 0 0 1 11.539 68.75c-.01 59.71-24.9 115.9-70.1 158.21-45.36 42.42-105.69 65.79-169.9 65.79s-124.54-23.37-169.9-65.79c-45.2-42.31-70.09-98.5-70.1-158.21.01-55.61 22-108.95 61.94-150.19a8 8 0 0 0 -11.49-11.13 242.493 242.493 0 0 0 -27.77 34.41 234.541 234.541 0 0 0 -20.92 38.89 227.222 227.222 0 0 0 -12.54 136.49 228.469 228.469 0 0 0 14.98 45.13 236 236 0 0 0 23.67 40.8 245.744 245.744 0 0 0 31.3 35.49 255.168 255.168 0 0 0 37.9 29.25 261.591 261.591 0 0 0 43.45 22.07 267.96 267.96 0 0 0 47.99 13.93 275.131 275.131 0 0 0 102.969 0 267.493 267.493 0 0 0 47.991-13.93 261.687 261.687 0 0 0 43.46-22.07 255.168 255.168 0 0 0 37.9-29.25 245.744 245.744 0 0 0 31.3-35.49 236.126 236.126 0 0 0 23.67-40.8 226.824 226.824 0 0 0 7.79-167.57 8.006 8.006 0 0 0 -7.56-5.39z"/><path d="m373.66 148.03a72 72 0 0 0 138.34-28.03c-.08-9.73-3.44-20.61-10.88-35.28-7.7-14.97-19.32-32.5-34.56-52.1-10.51-13.51-18.97-23.12-20.56-24.91l-6-6.72-5.97 6.68-.02.02c-.97 1.09-6.151 6.96-13.34 15.83a8.009 8.009 0 0 0 1.17 11.25 8 8 0 0 0 11.26-1.17c2.29-2.84 4.62-5.64 6.9-8.35 5.939 7.04 17.51 21.15 28.439 36.81a255.321 255.321 0 0 1 19.491 32.04c5.2 10.4 8.15 19.84 8.07 25.9a56 56 0 1 1 -112 0c-.021-3.96 1.2-9.41 3.439-15.35a139.092 139.092 0 0 1 9.54-19.75 8 8 0 0 0 -13.91-7.91 154.718 154.718 0 0 0 -10.609 22.05c-3.03 8.12-4.44 14.78-4.46 20.96a71.664 71.664 0 0 0 5.66 28.03z"/><path d="m402.78 60.56a8 8 0 1 0 -1.87-11.16v.01a8.019 8.019 0 0 0 1.87 11.15z"/></g></g></svg>