<svg height="512" viewBox="0 0 512 512" width="512" xmlns="http://www.w3.org/2000/svg"><g id="Unamused_Face" data-name="Unamused Face"><g id="Filled"><circle cx="256" cy="256" fill="#ffcc80" r="248"/><circle cx="360" cy="224" fill="#fff" r="16"/><circle cx="200" cy="224" fill="#fff" r="16"/><path d="m399.749 53.889a256 256 0 0 1 16.251 90.111 255.989 255.989 0 0 1 -256 256 254.542 254.542 0 0 1 -125.776-32.923 247.984 247.984 0 0 0 221.776 136.923c136.967 0 248-111.033 248-248a247.687 247.687 0 0 0 -104.251-202.111z" fill="#ffb74d"/><g fill="#ffe4c0"><circle cx="88" cy="280" r="24"/><circle cx="424" cy="280" r="24"/></g></g><g id="Outline" fill="#231f20"><path d="m506.8 204.41a254.636 254.636 0 0 0 -38.52-91.54 256.734 256.734 0 0 0 -112.631-92.75 255.972 255.972 0 0 0 -228.79 14.79 8 8 0 0 0 8.08 13.81 240.319 240.319 0 1 1 -48.839 37.77 8 8 0 0 0 -11.33-11.3 256.5 256.5 0 0 0 -69.57 232.4 254.656 254.656 0 0 0 38.52 91.54 256.741 256.741 0 0 0 112.63 92.75 255.67 255.67 0 0 0 242.78-23.6 256.734 256.734 0 0 0 92.75-112.631 257.39 257.39 0 0 0 14.92-151.239z"/><path d="m104.42 67.7a7.929 7.929 0 0 0 4.89-1.67l.12-.091a8 8 0 0 0 -9.91-12.569 8 8 0 0 0 4.9 14.33z"/><path d="m128.014 224.914a7.982 7.982 0 0 0 4.965-1.726c1.11-.877 21.2-16.386 49.128-15.161a24 24 0 1 0 39.829 6.253 7.98 7.98 0 0 0 -2.358-12.509c-51.978-25.994-94.778 7.47-96.578 8.908a8 8 0 0 0 5.012 14.235zm71.986-8.914a8 8 0 1 1 -8 8 8.009 8.009 0 0 1 8-8z"/><path d="m379.578 201.771c-51.978-25.994-94.778 7.47-96.578 8.908a8 8 0 0 0 9.977 12.509c1.11-.877 21.2-16.386 49.128-15.161a24 24 0 1 0 39.829 6.253 7.98 7.98 0 0 0 -2.358-12.509zm-19.578 30.229a8 8 0 1 1 8-8 8.009 8.009 0 0 1 -8 8z"/><path d="m176.237 313.934a7.992 7.992 0 0 0 9.7 5.829c.629-.158 63.751-15.763 102.063-15.763 27.709 0 31.711 7.979 32.038 8.788a8 8 0 0 0 7.962 7.212h.119a8 8 0 0 0 7.881-8.117c-.036-2.445-1.688-23.883-48-23.883-40.283 0-103.271 15.574-105.934 16.237a8 8 0 0 0 -5.829 9.697z"/></g></g></svg>