<svg height="512" viewBox="0 0 512 512" width="512" xmlns="http://www.w3.org/2000/svg"><g id="Crying_Face" data-name="Crying Face"><g id="Filled"><circle cx="256" cy="256" fill="#ffcc80" r="248"/><path d="m429.39 78.712a256.8 256.8 0 0 1 10.61 73.288 256 256 0 0 1 -256 256 254.044 254.044 0 0 1 -155.139-52.331c38.378 87.331 125.628 148.331 227.139 148.331 136.967 0 248-111.033 248-248a247.232 247.232 0 0 0 -74.61-177.288z" fill="#ffb74d"/><path d="m392 376a64 64 0 0 1 -128 0c0-35.346 64-107 64-107s64 71.654 64 107z" fill="#2196f3"/><circle cx="184" cy="216" fill="#fff" r="16"/><circle cx="328" cy="216" fill="#fff" r="16"/><path d="m375.476 332.671a116.013 116.013 0 0 1 -104.554 72.269 64 64 0 0 0 121.078-28.94c0-11.752-7.078-27.518-16.524-43.329z" fill="#1e88e5"/><circle cx="320.974" cy="329" fill="#90caf9" r="20"/><circle cx="304.974" cy="369" fill="#90caf9" r="12"/><g fill="#ffe4c0"><circle cx="56" cy="264" r="24"/><circle cx="456" cy="264" r="24"/></g></g><g id="Outline" fill="#231f20"><path d="m91.34 78.54a7.993 7.993 0 0 0 5.229-1.94l.08-.07a8 8 0 1 0 -10.62-11.961 8 8 0 0 0 -.67 11.29 8.037 8.037 0 0 0 5.981 2.681z"/><path d="m506.8 204.41a255.854 255.854 0 0 0 -69.78-129.431 258.38 258.38 0 0 0 -37.89-31.259 254.983 254.983 0 0 0 -143.13-43.72h-.021a254.834 254.834 0 0 0 -143.939 44.28 8 8 0 1 0 9.01 13.22 240.019 240.019 0 0 1 304.66 368.21 240 240 0 0 1 -350.82-327.19 8 8 0 1 0 -12.071-10.5 255.9 255.9 0 1 0 443.981 116.39z"/><path d="m416 184a8 8 0 0 0 16 0 64.072 64.072 0 0 0 -64-64 8 8 0 0 0 0 16 48.053 48.053 0 0 1 48 48z"/><path d="m88 192a8 8 0 0 0 8-8 48.053 48.053 0 0 1 48-48 8 8 0 0 0 0-16 64.072 64.072 0 0 0 -64 64 8 8 0 0 0 8 8z"/><path d="m208 216a24 24 0 1 0 -24 24 24.028 24.028 0 0 0 24-24zm-32 0a8 8 0 1 1 8 8 8.009 8.009 0 0 1 -8-8z"/><path d="m328 240a24 24 0 1 0 -24-24 24.028 24.028 0 0 0 24 24zm0-32a8 8 0 1 1 -8 8 8.009 8.009 0 0 1 8-8z"/><path d="m290.779 316.56a8.008 8.008 0 1 0 -1.859-11.16l-.01.011a8.02 8.02 0 0 0 1.869 11.149z"/><path d="m284.979 340.9a8 8 0 1 0 -13.91-7.909 154.718 154.718 0 0 0 -10.609 22.05c-3.021 8.109-4.44 14.77-4.46 20.96a72 72 0 1 0 144 0c-.08-9.73-3.44-20.61-10.88-35.28-7.7-14.98-19.33-32.5-34.56-52.1-11.31-14.54-20.22-24.53-20.59-24.95l-5.97-6.681-5.971 6.69c-.229.25-5.739 6.44-13.359 15.84a8 8 0 0 0 12.43 10.08c2.27-2.81 4.589-5.621 6.9-8.35 5.95 7.05 17.52 21.16 28.43 36.81a254.358 254.358 0 0 1 19.5 32.04c5.21 10.4 8.15 19.839 8.07 25.9a56 56 0 1 1 -112 0c-.021-3.971 1.2-9.42 3.439-15.351a139.144 139.144 0 0 1 9.54-19.749z"/><path d="m128 376a8 8 0 0 0 16 0 24.028 24.028 0 0 1 24-24h72a8 8 0 0 0 0-16h-72a40.045 40.045 0 0 0 -40 40z"/></g></g></svg>