<svg height="512" viewBox="0 0 512 512" width="512" xmlns="http://www.w3.org/2000/svg"><g id="Anxious_Face_With_Sweat" data-name="Anxious Face With Sweat"><g id="Filled"><circle cx="256" cy="256" fill="#ffcc80" r="248"/><path d="m429.39 78.712a256.8 256.8 0 0 1 10.61 73.288 256 256 0 0 1 -256 256 254.044 254.044 0 0 1 -155.139-52.331c38.378 87.331 125.628 148.331 227.139 148.331 136.967 0 248-111.033 248-248a247.232 247.232 0 0 0 -74.61-177.288z" fill="#ffb74d"/><path d="m208 304h96a64 64 0 0 1 64 64 16 16 0 0 1 -16 16h-192a16 16 0 0 1 -16-16 64 64 0 0 1 64-64z" fill="#e27484"/><path d="m504 283a64 64 0 0 1 -128 0c0-35.346 64-107 64-107s64 71.654 64 107z" fill="#2196f3"/><circle cx="184" cy="216" fill="#fff" r="16"/><circle cx="328" cy="216" fill="#fff" r="16"/><circle cx="56" cy="264" fill="#ffe4c0" r="24"/><path d="m304 304h-96a64 64 0 0 0 -64 64 16 16 0 0 0 16 16h1.825a72.1 72.1 0 0 1 70.175-56h96a71.516 71.516 0 0 1 30.81 6.945 63.963 63.963 0 0 0 -54.81-30.945z" fill="#d8667c"/><path d="m487.476 239.671a116.013 116.013 0 0 1 -104.554 72.269 64 64 0 0 0 121.078-28.94c0-11.752-7.078-27.518-16.524-43.329z" fill="#1e88e5"/><g fill="#90caf9"><circle cx="436" cy="236" r="20"/><circle cx="420" cy="276" r="12"/></g></g><g id="Outline" fill="#231f20"><path d="m478.81 365.31a8 8 0 0 0 -10.81 3.27l-.01.029a240.023 240.023 0 1 1 -367.54-295.389 7.993 7.993 0 0 0 .9-11.281 7.994 7.994 0 0 0 -11.27-.9 255.742 255.742 0 0 0 -46.36 338.091 256.763 256.763 0 0 0 112.63 92.75 256.09 256.09 0 0 0 325.759-115.75 8.012 8.012 0 0 0 -3.299-10.82z"/><path d="m148.72 40.34a7.828 7.828 0 0 0 3.46-.79 237.944 237.944 0 0 1 103.82-23.55h.03a239.532 239.532 0 0 1 232.81 181.6 7.978 7.978 0 0 0 7.75 6.06 8 8 0 0 0 7.769-9.94 254.172 254.172 0 0 0 -33.679-77.23 256.024 256.024 0 0 0 -325.43-91.36 8 8 0 0 0 3.47 15.21z"/><path d="m120.88 56.01a8.052 8.052 0 0 0 4.36-1.29l.02-.02a8 8 0 0 0 -8.39-13.62l.04-.04-.4.27a8 8 0 0 0 4.37 14.7z"/><path d="m208 216a24 24 0 1 0 -24 24 24.028 24.028 0 0 0 24-24zm-32 0a8 8 0 1 1 8 8 8.009 8.009 0 0 1 -8-8z"/><path d="m352 216a24 24 0 1 0 -24 24 24.028 24.028 0 0 0 24-24zm-32 0a8 8 0 1 1 8 8 8.009 8.009 0 0 1 -8-8z"/><path d="m400 176a8 8 0 0 0 -8-8c-39.868 0-62.064-4.23-72.736-27.353a8 8 0 0 0 -14.528 6.706c15.621 33.847 50.192 36.647 87.264 36.647a8 8 0 0 0 8-8z"/><path d="m120 184c37.072 0 71.643-2.8 87.264-36.647a8 8 0 1 0 -14.528-6.706c-10.672 23.123-32.868 27.353-72.736 27.353a8 8 0 0 0 0 16z"/><path d="m413.939 221.689a8 8 0 1 0 -13.019-9.29l-.01.011a7.989 7.989 0 0 0 6.51 12.63 8.009 8.009 0 0 0 6.43-3.23v.009z"/><path d="m501.12 247.72c-7.69-14.96-19.32-32.491-34.56-52.1-10.48-13.471-18.96-23.11-20.55-24.91l-6.01-6.72-5.97 6.68c-.22.25-5.631 6.309-13.36 15.85a8.009 8.009 0 0 0 1.17 11.25 8 8 0 0 0 11.26-1.17l.06-.08c2.279-2.81 4.58-5.59 6.84-8.27 5.95 7.05 17.52 21.17 28.439 36.81a254.369 254.369 0 0 1 19.491 32.04c5.21 10.4 8.15 19.839 8.07 25.9a56 56 0 1 1 -112 0c-.021-3.96 1.2-9.41 3.439-15.351a140.565 140.565 0 0 1 9.531-19.75 7.987 7.987 0 0 0 -2.991-10.909 7.987 7.987 0 0 0 -10.91 3 154.882 154.882 0 0 0 -10.609 22.05c-3.03 8.109-4.44 14.77-4.46 20.96a72 72 0 1 0 144 0c-.08-9.73-3.44-20.61-10.88-35.28z"/><path d="m136 368a24.028 24.028 0 0 0 24 24h192a24.028 24.028 0 0 0 24-24 72.081 72.081 0 0 0 -72-72h-96a72.081 72.081 0 0 0 -72 72zm72-56h96a56.063 56.063 0 0 1 56 56 8.009 8.009 0 0 1 -8 8h-192a8.009 8.009 0 0 1 -8-8 56.063 56.063 0 0 1 56-56z"/></g></g></svg>