<svg height="512" viewBox="0 0 512 512" width="512" xmlns="http://www.w3.org/2000/svg"><g id="Winking_Face" data-name="Winking Face"><g id="Filled"><path d="m504 216c0 128.13-127.033 288-264 288s-232-119.87-232-248 95.033-248 232-248 264 71 264 208z" fill="#ffcc80"/><circle cx="184" cy="152" fill="#fff" r="16"/><path d="m463.983 98.649c0 .451.017.9.017 1.351 0 174.522-141.478 316-316 316a315.761 315.761 0 0 1 -96.165-14.911c40.673 60.882 107.065 102.911 188.165 102.911 136.967 0 264-159.87 264-288 0-46.93-14.911-86.111-40.017-117.351z" fill="#ffb74d"/><g fill="#ffe4c0"><circle cx="80" cy="216" r="24"/><circle cx="432" cy="216" r="24"/></g></g><g id="Outline" fill="#231f20"><path d="m489.04 121.89a195.659 195.659 0 0 0 -42.88-53.38 244.963 244.963 0 0 0 -59.07-38.07c-42.84-19.91-93.7-30.43-147.09-30.44h-.03a231.615 231.615 0 0 0 -61.16 8.12 226.185 226.185 0 0 0 -54.121 22.76 8 8 0 0 0 8.071 13.82l.15-.09c32.61-18.98 68.64-28.6 107.09-28.61h.13c69 0 132.42 18.16 178.58 51.14 24.3 17.33 43.229 38.32 56.269 62.38 13.941 25.74 21.011 54.84 21.021 86.48.09 59.64-30.061 131.21-78.66 186.79-24.46 28.01-52.861 51.25-82.14 67.2-31.66 17.26-63.69 26.01-95.2 26.01-62.04-.03-119.351-26.05-161.391-73.27-39.799-44.75-62.63-105.53-62.609-166.73-.021-64.59 24.95-127.68 68.51-173.12a8 8 0 0 0 -11.56-11.07 256.369 256.369 0 0 0 -30.83 39.34 268.313 268.313 0 0 0 -22.92 44.83 270.37 270.37 0 0 0 -1.7 195.65 269.086 269.086 0 0 0 20.93 43.26 257.807 257.807 0 0 0 28.23 38.47 242.389 242.389 0 0 0 34.89 32.32 231.34 231.34 0 0 0 40.979 24.81 227.129 227.129 0 0 0 97.371 21.51h.1a197.178 197.178 0 0 0 52.81-7.41 238.888 238.888 0 0 0 50.049-20.55 307.251 307.251 0 0 0 66.981-50.06 363.207 363.207 0 0 0 53.51-66.28 338.014 338.014 0 0 0 35.629-75.06c8.621-26.4 13-52.19 13.021-76.64.01-34.34-7.71-66.01-22.96-94.11z"/><path d="m102.359 63.82a7.962 7.962 0 0 0 4.951-1.72l.02-.01a8 8 0 0 0 -4.98-14.27 7.9 7.9 0 0 0 -4.96 1.73l-.111.09a8 8 0 0 0 5.08 14.18z"/><path d="m208 152a24 24 0 1 0 -24 24 24.027 24.027 0 0 0 24-24zm-32 0a8 8 0 1 1 8 8 8.009 8.009 0 0 1 -8-8z"/><path d="m375.96 128a8 8 0 0 0 0-16c-34.091 0-70.323 17.224-71.945 46.049a9 9 0 0 0 11.9 9.034c6.085-2.083 60.171-19.641 86.385 6.574a8 8 0 1 0 11.314-11.314c-25.339-25.339-66.961-19.81-89.392-14.31 8.578-11.579 29.033-20.033 51.738-20.033z"/><path d="m130.343 274.343a8 8 0 0 0 0 11.314 62.214 62.214 0 0 0 44.284 18.343h153.373a72.081 72.081 0 0 0 72-72 8 8 0 0 0 -16 0 56.063 56.063 0 0 1 -56 56h-153.373a46.326 46.326 0 0 1 -32.971-13.657 8 8 0 0 0 -11.313 0z"/><path d="m224 320a8 8 0 0 0 0 16h64a8 8 0 0 0 0-16z"/></g></g></svg>