<svg height="512" viewBox="0 0 512 512" width="512" xmlns="http://www.w3.org/2000/svg"><g id="Winking_Face_With_Tongue" data-name="Winking Face With Tongue"><g id="Filled"><path d="m504 240c0 128.13-111.033 264-248 264s-248-135.87-248-264 111.033-232 248-232 248 103.87 248 232z" fill="#ffcc80"/><path d="m504 240c0-60.3-24.6-115.225-64.913-156.481q.9 12.126.913 24.481c0 183.359-148.641 332-332 332-2.568 0-5.126-.042-7.68-.1 42.563 38.9 96.713 64.1 155.68 64.1 136.967 0 248-135.87 248-264z" fill="#ffb74d"/><path d="m256 424a112 112 0 0 1 -112-112v-99.273a16 16 0 0 1 12.569-15.627c21.031-4.613 51.431-13.1 99.431-13.1s78.4 8.487 99.431 13.1a16 16 0 0 1 12.569 15.627v99.273a112 112 0 0 1 -112 112z" fill="#e27484"/><path d="m292 312c-28 0-36 16-36 16s-8-16-36-16a36 36 0 0 0 -36 36v84a72 72 0 0 0 72 72 72 72 0 0 0 72-72v-84a36 36 0 0 0 -36-36z" fill="#ef5350"/><path d="m120 168a8 8 0 0 1 -5.657-13.657c25.342-25.342 66.966-19.81 89.393-14.31-8.572-11.577-29.031-20.033-51.736-20.033a8 8 0 0 1 0-16c34.091 0 70.323 17.224 71.945 46.047a9 9 0 0 1 -11.907 9.036c-6.079-2.087-60.168-19.64-86.381 6.574a7.976 7.976 0 0 1 -5.657 2.343z" fill="#424242"/><circle cx="352" cy="144" fill="#fff" r="16"/><path d="m340 208a197.194 197.194 0 0 1 27.762 1.967 15.993 15.993 0 0 0 -12.331-12.867c-21.031-4.613-51.431-13.1-99.431-13.1s-78.4 8.487-99.431 13.1a15.993 15.993 0 0 0 -12.569 15.627v99.273a111.753 111.753 0 0 0 7.141 39.417c22.98-82.711 98.827-143.417 188.859-143.417z" fill="#d8667c"/><path d="m328 348c0-.719-.027-1.431-.069-2.139a168.16 168.16 0 0 1 -137.885 115.022 72 72 0 0 0 65.954 43.117 72 72 0 0 0 72-72z" fill="#e53935"/><circle cx="208" cy="344" fill="#ff8f8f" r="16"/><circle cx="220" cy="380" fill="#ff8f8f" r="12"/><circle cx="64" cy="240" fill="#ffe4c0" r="24"/><circle cx="448" cy="240" fill="#ffe4c0" r="24"/><path d="m192 232h128a16 16 0 0 0 16-16v-23.281a371.374 371.374 0 0 0 -160 0v23.281a16 16 0 0 0 16 16z" fill="#f5f5f5"/><path d="m336 192.719a371.374 371.374 0 0 0 -160 0v23.281a16 16 0 0 0 16 16h9.251a152 152 0 0 1 134.749-36.6z" fill="#e5e5e5"/></g><g id="Outline" fill="#231f20"><path d="m169.189 476.55c-43.129-19.82-82.259-54.63-110.189-98.02-27.74-43.06-43.021-92.26-43-138.53.01-65.28 30.45-127.19 83.529-169.85a8 8 0 1 0 -10.019-12.47 248.575 248.575 0 0 0 -37.06 36.74 237.749 237.749 0 0 0 -28.2 43.5 226.509 226.509 0 0 0 -24.25 102.08 254.261 254.261 0 0 0 12.04 76.02 294.636 294.636 0 0 0 33.51 71.18 297.565 297.565 0 0 0 51.309 60.38 263.375 263.375 0 0 0 65.651 43.51 8 8 0 0 0 6.679-14.54z"/><path d="m506.779 191.53a228.531 228.531 0 0 0 -14.979-45.13 236.5 236.5 0 0 0 -23.67-40.8 245.744 245.744 0 0 0 -31.3-35.49 255.557 255.557 0 0 0 -37.891-29.25 262 262 0 0 0 -43.46-22.07 267.8 267.8 0 0 0 -48-13.93 273.769 273.769 0 0 0 -51.479-4.86h-.021a273.684 273.684 0 0 0 -57.379 6.06 266.761 266.761 0 0 0 -52.85 17.27 8 8 0 0 0 3.279 15.3 7.882 7.882 0 0 0 3.271-.7 251.939 251.939 0 0 1 103.7-21.93c64.2 0 124.54 23.37 169.9 65.79 45.2 42.31 70.09 98.5 70.1 158.21.01 46.27-15.26 95.47-43 138.53-27.931 43.39-67.061 78.2-110.19 98.02a8 8 0 0 0 -3.93 10.61 8.029 8.029 0 0 0 7.269 4.66h.011a8.028 8.028 0 0 0 3.33-.73 263.351 263.351 0 0 0 65.65-43.51 297.57 297.57 0 0 0 51.31-60.38 294.459 294.459 0 0 0 33.51-71.18 254.293 254.293 0 0 0 12.04-76.02 226.979 226.979 0 0 0 -5.221-48.47z"/><path d="m120.71 53.53h.01a8 8 0 0 0 -.02-16 8.04 8.04 0 0 0 -4.16 1.17 8 8 0 0 0 4.17 14.83z"/><path d="m120 168a7.976 7.976 0 0 0 5.657-2.343c26.213-26.214 80.3-8.661 86.381-6.574a9 9 0 0 0 11.907-9.036c-1.622-28.823-37.854-46.047-71.945-46.047a8 8 0 0 0 0 16c22.705 0 43.164 8.456 51.736 20.033-22.427-5.5-64.051-11.032-89.393 14.31a8 8 0 0 0 5.657 13.657z"/><path d="m376 144a24 24 0 1 0 -24 24 24.027 24.027 0 0 0 24-24zm-32 0a8 8 0 1 1 8 8 8.009 8.009 0 0 1 -8-8z"/><path d="m344 202.714 1.547.354c2.873.658 5.591 1.281 8.169 1.847a7.947 7.947 0 0 1 6.284 7.815v99.27a103.377 103.377 0 0 1 -7.426 38.653 8 8 0 1 0 14.852 5.954 119.335 119.335 0 0 0 8.574-44.607v-99.27a24.145 24.145 0 0 0 -18.857-23.444c-2.532-.556-5.2-1.167-8.022-1.814-21.121-4.841-50.049-11.472-93.121-11.472s-72 6.631-93.121 11.472c-2.821.647-5.49 1.258-8.023 1.814a24.145 24.145 0 0 0 -18.856 23.444v99.27a119.335 119.335 0 0 0 8.574 44.607 8 8 0 0 0 14.852-5.954 103.377 103.377 0 0 1 -7.426-38.653v-99.27a7.948 7.948 0 0 1 6.283-7.815c2.579-.566 5.3-1.189 8.17-1.847l1.547-.354v13.286a24.028 24.028 0 0 0 24 24h128a24.028 24.028 0 0 0 24-24zm-16 13.286a8.009 8.009 0 0 1 -8 8h-128a8.009 8.009 0 0 1 -8-8v-16.786a362.908 362.908 0 0 1 144 0z"/><path d="m292 304c-18.368 0-29.612 6.231-36 11.813-6.388-5.582-17.632-11.813-36-11.813a44.049 44.049 0 0 0 -44 44v84a80 80 0 0 0 160 0v-84a44.049 44.049 0 0 0 -44-44zm28 128a64 64 0 0 1 -128 0v-84a28.032 28.032 0 0 1 28-28c17.9 0 25.567 7.324 28 10.4v37.6a8 8 0 0 0 16 0v-37.638c2.341-2.97 9.983-10.362 28-10.362a28.032 28.032 0 0 1 28 28z"/><circle cx="256" cy="400" r="8"/></g></g></svg>