<svg xmlns="http://www.w3.org/2000/svg" xmlns:xlink="http://www.w3.org/1999/xlink" viewBox="0 0 512 512">
  <path fill="#fff" d="m512 421.928v-391.904h-512v391.904h241v30.048h-30.036v30h90.072v-30h-30.036v-30.048zm-30-361.904v30.048h-452v-30.048zm-452 60.048h452v271.856h-452z" />
  <path fill="#fff" d="m401.924 180.144c-18.768 0-35.146 10.393-43.705 25.721l-52.448-10.791c-2.551-25.211-23.899-44.954-49.772-44.954-27.585 0-50.028 22.442-50.028 50.028 0 6.003 1.065 11.762 3.012 17.1l-70.154 53.703c-8.142-5.741-18.057-9.127-28.754-9.127-27.586 0-50.028 22.442-50.028 50.028s22.442 50.028 50.028 50.028c27.585 0 50.028-22.442 50.028-50.028 0-6.003-1.065-11.762-3.012-17.1l70.154-53.703c8.142 5.741 18.057 9.127 28.754 9.127 18.768 0 35.146-10.393 43.705-25.721l52.448 10.791c2.551 25.212 23.899 44.955 49.772 44.955 27.586 0 50.028-22.442 50.028-50.028 0-27.587-22.442-50.029-50.028-50.029zm-291.848 151.736c-11.043 0-20.028-8.984-20.028-20.028s8.985-20.028 20.028-20.028 20.028 8.984 20.028 20.028-8.984 20.028-20.028 20.028zm145.924-111.704c-11.043 0-20.028-8.984-20.028-20.028s8.985-20.028 20.028-20.028 20.028 8.984 20.028 20.028-8.985 20.028-20.028 20.028zm145.924 30.024c-11.043 0-20.028-8.985-20.028-20.028s8.984-20.028 20.028-20.028 20.028 8.984 20.028 20.028-8.985 20.028-20.028 20.028z" />
</svg>
