<svg xmlns="http://www.w3.org/2000/svg" xmlns:xlink="http://www.w3.org/1999/xlink" viewBox="0 0 512 512">
  <path fill="#fff" d="m467.732 294.896-17.56-51.38c34.6-6.646 60.828-37.13 60.828-73.639v-8.255l-255-161.5-255 161.5v8.255c0 36.509 26.228 66.993 60.828 73.639l-17.56 51.38c-24.476.394-44.268 20.414-44.268 44.982 0 24.813 20.187 45 45 45s45-20.187 45-45c0-14.369-6.778-27.177-17.295-35.421l21.091-61.712c17.108-4.179 31.934-14.242 42.203-27.914 10.16 13.527 24.782 23.515 41.66 27.773l-26.024 112.49c-22.772 2.201-40.635 21.443-40.635 44.784 0 24.813 20.187 45 45 45s45-20.187 45-45c0-15.672-8.059-29.492-20.244-37.553l27.402-118.448c12.176-1.994 23.377-6.919 32.842-14.041v252.041h-176v30h382v-30h-176v-252.04c9.466 7.122 20.667 12.047 32.842 14.041l27.402 118.448c-12.186 8.06-20.244 21.88-20.244 37.553 0 24.813 20.187 45 45 45s45-20.187 45-45c0-23.34-17.863-42.583-40.636-44.785l-26.024-112.493c16.878-4.258 31.5-14.247 41.66-27.775 10.267 13.67 25.093 23.718 42.197 27.899l21.098 61.732c-10.517 8.244-17.295 21.052-17.295 35.421 0 24.813 20.187 45 45 45s45-20.187 45-45c0-24.568-19.792-44.588-44.268-44.982zm-422.732 59.982c-8.271 0-15-6.729-15-15s6.729-15 15-15 15 6.729 15 15-6.729 15-15 15zm111 60c-8.271 0-15-6.729-15-15s6.729-15 15-15 15 6.729 15 15-6.729 15-15 15zm215-15c0 8.271-6.729 15-15 15s-15-6.729-15-15 6.729-15 15-15 15 6.729 15 15zm20-230h-30c0 24.813-20.187 45-45 45s-45-20.187-45-45h-30c0 24.813-20.187 45-45 45s-45-20.187-45-45h-30c0 24.813-20.187 45-45 45-22.145 0-40.604-16.08-44.319-37.176l224.319-142.069 224.319 142.069c-3.715 21.096-22.175 37.176-44.319 37.176-24.813 0-45-20.187-45-45zm76 185c-8.271 0-15-6.729-15-15s6.729-15 15-15 15 6.729 15 15-6.729 15-15 15z" />
</svg>
