<svg xmlns="http://www.w3.org/2000/svg" xmlns:xlink="http://www.w3.org/1999/xlink" viewBox="0 0 512 512">
  <path fill="#fff" d="M496.994,481.986H389.488c-6.968-34.191-37.271-59.998-73.488-59.998h-44.998V181.998h59.998v122.575
    C313.541,310.765,301,327.437,301,346.991c0,24.812,20.186,44.998,44.998,44.998s44.998-20.186,44.998-44.998
    c0-19.554-12.54-36.227-29.999-42.418V181.998c9.955,0,81.047,0,90.996,0v122.575c-17.458,6.192-29.999,22.864-29.999,42.418
    c0,24.812,20.186,44.998,44.998,44.998s44.998-20.186,44.998-44.998c0-19.554-12.541-36.227-29.999-42.418V181.998h14.999
    c10.222,0,17.465-10.033,14.229-19.742c-19.926-59.777-76.744-100.253-140.094-100.253h-47.449l-30.405-42.208
    c-17.828-26.368-56.717-26.371-74.548,0l-30.405,42.208h-47.449c-63.262,0-120.142,40.4-140.094,100.253
    c-3.232,9.698,3.995,19.742,14.229,19.742h14.999v122.575c-17.458,6.192-29.999,22.864-29.999,42.418
    c0,24.812,20.186,44.998,44.998,44.998c24.812,0,44.998-20.186,44.998-44.998c0-19.554-12.54-36.227-29.999-42.418V181.998
    c9.95,0,81.042,0,90.996,0v122.575c-17.458,6.192-29.999,22.864-29.999,42.418c0,24.812,20.186,44.998,44.998,44.998
    c24.812,0,44.998-20.186,44.998-44.998c0-19.554-12.541-36.227-29.999-42.418V181.998h60.002v239.991h-44.998
    c-36.218,0-66.519,25.807-73.488,59.998H15.012c-8.284,0-14.999,6.716-14.999,14.999s6.716,14.999,14.999,14.999h481.981
    c8.284,0,14.999-6.716,14.999-14.999C511.993,488.702,505.277,481.986,496.994,481.986z M360.999,346.991
    c0,8.271-6.729,14.999-14.999,14.999c-8.271,0-14.999-6.729-14.999-14.999s6.729-14.999,14.999-14.999
    C354.27,331.992,360.999,338.72,360.999,346.991z M481.994,346.991c0,8.271-6.729,14.999-14.999,14.999
    s-14.999-6.729-14.999-14.999s6.729-14.999,14.999-14.999S481.994,338.72,481.994,346.991z M371.13,92.001
    c43.483,0,82.576,23.412,102.943,59.998h-84.152c-3.354-23.347-14.416-44.234-30.519-59.998H371.13z M243.213,37.129
    c0.106-0.147,0.209-0.296,0.31-0.447c5.942-8.915,19.005-8.933,24.96,0c0.101,0.151,0.204,0.3,0.31,0.447l17.917,24.873h-61.415
    L243.213,37.129z M60.011,346.991c0,8.271-6.729,14.999-14.999,14.999s-14.999-6.729-14.999-14.999s6.729-14.999,14.999-14.999
    S60.011,338.72,60.011,346.991z M122.084,151.999H37.933c20.367-36.586,59.46-60.098,102.943-60.098h11.728
    C136.501,107.665,125.438,128.652,122.084,151.999z M181.006,346.991c0,8.271-6.729,14.999-14.999,14.999
    c-8.271,0-14.999-6.729-14.999-14.999s6.729-14.999,14.999-14.999C174.277,331.992,181.006,338.72,181.006,346.991z
      M152.513,151.999c6.969-34.19,37.273-59.998,73.49-59.998h59.998c36.218,0,66.521,25.808,73.49,59.998H152.513z M153.587,481.986
    c6.192-17.457,22.864-29.999,42.418-29.999h119.995c19.553,0,36.226,12.541,42.417,29.999H153.587z"/>
</svg>
