<svg height="512pt" viewBox="0 0 512 512" width="512pt" xmlns="http://www.w3.org/2000/svg"><path d="m485.058594 512h-458.8125c-14.496094 0-26.246094-11.753906-26.246094-26.246094l.00390625-459.507812c0-14.496094 11.74999975-26.246094 26.24609375-26.246094h458.8125c14.496094 0 26.246094 11.75 26.246094 26.246094l-.003906 459.507812c0 14.492188-11.75 26.246094-26.246094 26.246094zm0 0" fill="#fff5f5"/><path d="m70.453125 512v-351.910156c0-4.96875 4.027344-8.992188 8.996094-8.992188h185.195312c4.964844 0 8.992188 4.023438 8.992188 8.992188v351.910156zm0 0" fill="#e1d3ce"/><path d="m273.636719 160.085938v351.910156h-19.460938v-351.910156c0-4.960938-4.03125-8.988282-8.992187-8.988282h19.460937c4.960938 0 8.992188 4.027344 8.992188 8.988282zm0 0" fill="#cdbfba"/><path d="m208.277344 248.976562h65.359375v-88.886718c0-4.96875-4.027344-8.992188-8.996094-8.992188h-185.191406c-4.96875 0-8.996094 4.023438-8.996094 8.992188v88.886718h65.359375c3.65625 0 6.769531 2.578126 7.53125 6.152344 2.828125 13.253906 14.605469 23.195313 28.699219 23.195313 14.101562 0 25.875-9.941407 28.703125-23.195313.761718-3.574218 3.875-6.152344 7.53125-6.152344zm0 0" fill="#f3cc50"/><path d="m273.636719 160.085938v88.890624h-19.460938v-88.890624c0-4.960938-4.03125-8.988282-8.992187-8.988282h19.460937c4.960938 0 8.992188 4.027344 8.992188 8.988282zm0 0" fill="#f7c22c"/><path d="m245.414062 186.703125h-84.734374c-4.144532 0-7.5-3.359375-7.5-7.5 0-4.144531 3.355468-7.5 7.5-7.5h84.734374c4.140626 0 7.5 3.355469 7.5 7.5 0 4.140625-3.359374 7.5-7.5 7.5zm0 0" fill="#676868"/><path d="m132.570312 186.703125h-33.894531c-4.140625 0-7.5-3.359375-7.5-7.5 0-4.144531 3.359375-7.5 7.5-7.5h33.894531c4.140626 0 7.5 3.355469 7.5 7.5 0 4.140625-3.359374 7.5-7.5 7.5zm0 0" fill="#676868"/><path d="m113.972656 212.328125h-15.296875c-4.140625 0-7.5-3.355469-7.5-7.5 0-4.140625 3.359375-7.5 7.5-7.5h15.292969c4.144531 0 7.5 3.359375 7.5 7.5 0 4.144531-3.355469 7.5-7.496094 7.5zm0 0" fill="#676868"/><path d="m156.957031 212.328125h-15.292969c-4.140624 0-7.5-3.355469-7.5-7.5 0-4.140625 3.359376-7.5 7.5-7.5h15.292969c4.144531 0 7.5 3.359375 7.5 7.5 0 4.144531-3.355469 7.5-7.5 7.5zm0 0" fill="#676868"/><path d="m201.1875 212.328125h-15.292969c-4.144531 0-7.5-3.355469-7.5-7.5 0-4.140625 3.355469-7.5 7.5-7.5h15.292969c4.140625 0 7.5 3.359375 7.5 7.5 0 4.144531-3.359375 7.5-7.5 7.5zm0 0" fill="#676868"/><path d="m245.414062 212.328125h-15.292968c-4.144532 0-7.5-3.355469-7.5-7.5 0-4.140625 3.355468-7.5 7.5-7.5h15.292968c4.140626 0 7.5 3.359375 7.5 7.5 0 4.144531-3.359374 7.5-7.5 7.5zm0 0" fill="#676868"/><path d="m249.902344 512v-231.292969c0-4.667969 3.785156-8.453125 8.453125-8.453125h174.046875c4.667968 0 8.453125 3.785156 8.453125 8.453125v231.292969zm0 0" fill="#e1d3ce"/><path d="m440.855469 280.707031v231.289063h-20.332031v-231.289063c0-4.671875-3.777344-8.453125-8.449219-8.453125h20.332031c4.667969 0 8.449219 3.78125 8.449219 8.453125zm0 0" fill="#cdbfba"/><path d="m379.429688 364.242188h61.425781v-83.535157c0-4.667969-3.78125-8.453125-8.449219-8.453125h-174.050781c-4.667969 0-8.453125 3.785156-8.453125 8.453125v83.535157h61.425781c3.433594 0 6.363281 2.425781 7.078125 5.78125 2.65625 12.457031 13.726562 21.800781 26.972656 21.800781 13.25 0 24.320313-9.34375 26.976563-21.800781.714843-3.355469 3.640625-5.78125 7.074219-5.78125zm0 0" fill="#f3cc50"/><path d="m440.855469 280.707031v83.539063h-20.332031v-83.539063c0-4.671875-3.777344-8.453125-8.449219-8.453125h20.332031c4.667969 0 8.449219 3.78125 8.449219 8.453125zm0 0" fill="#f7c22c"/><g fill="#676868"><path d="m414.332031 306.167969h-79.636719c-4.140624 0-7.5-3.355469-7.5-7.5 0-4.140625 3.359376-7.5 7.5-7.5h79.636719c4.144531 0 7.5 3.359375 7.5 7.5 0 4.144531-3.355469 7.5-7.5 7.5zm0 0"/><path d="m308.28125 306.167969h-31.855469c-4.140625 0-7.5-3.355469-7.5-7.5 0-4.140625 3.359375-7.5 7.5-7.5h31.855469c4.140625 0 7.5 3.359375 7.5 7.5 0 4.144531-3.359375 7.5-7.5 7.5zm0 0"/><path d="m290.800781 330.253906h-14.375c-4.140625 0-7.5-3.359375-7.5-7.5 0-4.144531 3.359375-7.5 7.5-7.5h14.375c4.144531 0 7.5 3.355469 7.5 7.5 0 4.140625-3.359375 7.5-7.5 7.5zm0 0"/><path d="m331.199219 330.253906h-14.371094c-4.144531 0-7.5-3.359375-7.5-7.5 0-4.144531 3.355469-7.5 7.5-7.5h14.371094c4.144531 0 7.5 3.355469 7.5 7.5 0 4.140625-3.355469 7.5-7.5 7.5zm0 0"/><path d="m372.765625 330.253906h-14.371094c-4.144531 0-7.5-3.359375-7.5-7.5 0-4.144531 3.355469-7.5 7.5-7.5h14.371094c4.144531 0 7.5 3.355469 7.5 7.5 0 4.140625-3.355469 7.5-7.5 7.5zm0 0"/><path d="m414.332031 330.253906h-14.371093c-4.144532 0-7.5-3.359375-7.5-7.5 0-4.144531 3.355468-7.5 7.5-7.5h14.371093c4.144531 0 7.5 3.355469 7.5 7.5 0 4.140625-3.355469 7.5-7.5 7.5zm0 0"/><path d="m297.261719 156h12.859375v50.488281h-12.859375zm0 0"/><path d="m334.972656 156h23.726563v50.488281h-23.726563zm0 0"/><path d="m400.375 156h29.777344v50.488281h-29.777344zm0 0"/><path d="m320.097656 156h6.429688v50.488281h-6.429688zm0 0"/><path d="m366.125 156h6.429688v50.488281h-6.429688zm0 0"/><path d="m379.667969 156h3.214843v50.488281h-3.214843zm0 0"/><path d="m389.542969 156h3.214843v50.488281h-3.214843zm0 0"/></g><path d="m511.304688 26.242188-.003907 459.507812c0 14.496094-11.75 26.25-26.238281 26.25h-31.980469c14.496094 0 26.246094-11.753906 26.246094-26.25l.003906-459.507812c0-14.484376-11.75-26.23828175-26.246093-26.23828175h31.980468c14.488282 0 26.238282 11.75390575 26.238282 26.23828175zm0 0" fill="#efe2dd"/><path d="m511.308594 89.542969h-511.30468775v-63.296875c0-14.496094 11.74999975-26.246094 26.24609375-26.246094h458.8125c14.496094 0 26.246094 11.75 26.246094 26.246094zm0 0" fill="#c9f0ff"/><path d="m511.304688 26.242188v63.304687h-31.96875v-63.304687c0-14.484376-11.753907-26.23828175-26.25-26.23828175h31.980468c14.488282 0 26.238282 11.75390575 26.238282 26.23828175zm0 0" fill="#9ae7fd"/><path d="m64.136719 44.082031c0 8.246094-6.683594 14.929688-14.929688 14.929688-8.246093 0-14.929687-6.683594-14.929687-14.929688 0-8.246093 6.683594-14.929687 14.929687-14.929687 8.246094 0 14.929688 6.683594 14.929688 14.929687zm0 0" fill="#ef6161"/><path d="m121.796875 44.082031c0 8.246094-6.683594 14.929688-14.929687 14.929688-8.242188 0-14.929688-6.683594-14.929688-14.929688 0-8.246093 6.6875-14.929687 14.929688-14.929687 8.246093 0 14.929687 6.683594 14.929687 14.929687zm0 0" fill="#f3cc50"/><path d="m179.460938 44.082031c0 8.246094-6.6875 14.929688-14.929688 14.929688-8.246094 0-14.929688-6.683594-14.929688-14.929688 0-8.246093 6.683594-14.929687 14.929688-14.929687 8.242188 0 14.929688 6.683594 14.929688 14.929687zm0 0" fill="#baed6a"/><path d="m64.132812 44.085938c0 8.242187-6.679687 14.921874-14.917968 14.921874-3.992188 0-7.625-1.566406-10.300782-4.128906 8.074219-.175781 14.578126-6.78125 14.578126-14.910156 0-4.257812-1.777344-8.085938-4.628907-10.804688.113281-.007812.238281-.007812.351563-.007812 8.238281 0 14.917968 6.675781 14.917968 14.929688zm0 0" fill="#ea4444"/><path d="m121.796875 44.085938c0 8.242187-6.679687 14.921874-14.929687 14.921874-3.992188 0-7.613282-1.566406-10.300782-4.128906 8.089844-.175781 14.589844-6.78125 14.589844-14.910156 0-4.257812-1.777344-8.085938-4.628906-10.804688.113281-.007812.226562-.007812.339844-.007812 8.25 0 14.929687 6.675781 14.929687 14.929688zm0 0" fill="#f7c22c"/><path d="m179.460938 44.085938c0 8.242187-6.6875 14.921874-14.929688 14.921874-3.992188 0-7.613281-1.566406-10.300781-4.128906 8.089843-.175781 14.582031-6.78125 14.582031-14.910156 0-4.257812-1.78125-8.085938-4.628906-10.804688.109375-.007812.234375-.007812.347656-.007812 8.242188 0 14.929688 6.675781 14.929688 14.929688zm0 0" fill="#a3e72d"/></svg>